<?xml version="1.0" standalone="no"?>
<!DOCTYPE svg PUBLIC "-//W3C//DTD SVG 1.1//EN" "http://www.w3.org/Graphics/SVG/1.1/DTD/svg11.dtd" >
<svg xmlns="http://www.w3.org/2000/svg">
<metadata></metadata>
<defs>
<font id="cassiamedium" horiz-adv-x="1159" >
<font-face units-per-em="2048" ascent="1526" descent="-522" />
<missing-glyph horiz-adv-x="448" />
<glyph unicode="&#xfb01;" horiz-adv-x="1280" d="M61 -4v137q25 -2 52 -2q78 0 94 29q10 23 10 121q2 164 2 553q-41 0 -143 -5v142q83 0 110 12q19 8 27.5 26t15.5 70q21 139 74 226q64 107 176.5 163t259.5 56q159 0 235.5 -55.5t76.5 -139.5q0 -70 -39 -101.5t-92 -31.5q-117 0 -136 107q-13 86 -100 86 q-54 0 -98.5 -27t-69.5 -68q-64 -108 -67 -319q331 0 442.5 5t183.5 28l23 -27q-19 -186 -19 -442q0 -168 2 -252q3 -109 15 -131q16 -25 80 -25q24 0 57 2v-137q-114 8 -266 8q-50 0 -147 -4t-107 -4v137q18 -2 45 -2q62 0 80 27q11 19 14 129q2 74 2 219q0 211 -10 262 q-8 37 -34.5 51.5t-94.5 14.5q-122 0 -269 -3q-2 -57 -2 -206q0 -221 5 -344q3 -105 16 -125q16 -25 88 -25q37 0 68 2v-137q-220 8 -306 8q-50 0 -142 -3.5t-112 -4.5z" />
<glyph unicode="&#xfb02;" horiz-adv-x="1282" d="M61 -4v137q25 -2 52 -2q79 0 94 29q10 23 10 121q2 164 2 548q-61 0 -143 -4v144q83 0 110 12q17 6 25.5 25.5t17.5 72.5q20 133 72 226q59 106 170.5 163.5t249.5 57.5q102 0 188 -27q89 9 166 27l23 -27q-15 -284 -17 -674q0 -347 4 -542q3 -106 17 -127q16 -25 74 -25 q34 0 59 2v-137q-220 8 -260 8q-50 0 -146 -4t-114 -4v137q23 -2 45 -2q60 0 78 27q16 23 16 125q0 63 1 176t1 141q0 553 -8 657q-5 74 -39 104t-119 30q-57 0 -102 -27t-70 -64q-65 -96 -69 -325q157 0 233 6v-152q-68 2 -236 2q-2 -57 -2 -206q0 -221 5 -344 q3 -105 16 -125q16 -25 78 -25q45 0 78 2v-137q-220 8 -306 8q-50 0 -142 -3.5t-112 -4.5z" />
<glyph unicode="&#xfb03;" horiz-adv-x="1918" d="M61 -4v137q25 -2 50 -2q81 0 96 27q10 18 10 123q2 164 2 550q-61 0 -143 -4v142q83 0 110 12q19 8 27.5 27t15.5 71q15 109 58 193q54 105 147 161t213 56q106 0 164.5 -41.5t58.5 -118.5q0 -47 -30.5 -70.5t-73.5 -23.5q-37 0 -59.5 14t-30.5 51q-14 56 -72 56 q-37 0 -70 -25.5t-47 -60.5q-38 -91 -38 -295h217q120 0 155 12q21 9 30.5 26.5t16.5 65.5q18 142 72 226q66 107 178 163t260 56q158 0 234 -55.5t76 -139.5q0 -70 -39.5 -101.5t-92.5 -31.5q-116 0 -135 107q-13 86 -98 86q-55 0 -99 -27t-69 -68q-67 -116 -70 -319 q332 0 444.5 5t182.5 28l23 -27q-19 -186 -19 -442q0 -168 2 -252q3 -109 15 -131q16 -25 82 -25q24 0 57 2v-137q-114 8 -266 8q-51 0 -146.5 -4t-103.5 -4v137q16 -2 43 -2q61 0 76 27q2 3 3.5 7t3 9.5t2 10.5t1.5 13.5t1.5 14.5t1 17t0.5 17t0.5 19.5t0.5 20.5 q2 74 2 219q0 211 -10 262q-8 37 -34 51.5t-95 14.5q-120 0 -267 -3q-2 -57 -2 -206q0 -246 2 -344q3 -95 19 -125q16 -25 88 -25q41 0 68 2v-137q-220 8 -306 8q-50 0 -131.5 -3.5t-105.5 -4.5v137q18 -2 47 -2q61 0 78 29q14 25 14 121q2 164 2 550h-412q-2 -57 -2 -206 q0 -221 5 -344q3 -101 16 -125q16 -25 84 -25q43 0 72 2v-137q-220 8 -306 8q-50 0 -142 -3.5t-112 -4.5z" />
<glyph unicode="&#xfb04;" horiz-adv-x="1921" d="M61 -4v137q25 -2 52 -2q77 0 92 27q12 27 12 123q2 164 2 550q-61 0 -143 -4v142q83 0 110 12q19 8 27.5 27t15.5 71q15 109 58 193q54 105 147 161t213 56q106 0 164.5 -41.5t58.5 -118.5q0 -47 -30.5 -70.5t-73.5 -23.5q-37 0 -59.5 14t-30.5 51q-14 56 -72 56 q-37 0 -69 -25.5t-46 -60.5q-40 -96 -40 -295h217q120 0 155 12q21 9 30.5 26.5t16.5 65.5q15 123 72 224q60 107 170.5 165t249.5 58q102 0 188 -27q89 9 166 27l23 -27q-14 -218 -17 -674q0 -337 4 -542q3 -106 17 -127q16 -25 74 -25q34 0 59 2v-137q-220 8 -260 8 q-50 0 -143.5 -4t-112.5 -4v137q23 -2 43 -2q60 0 76 27q16 23 16 125q2 123 2 317q0 553 -8 657q-5 74 -39 104t-119 30q-56 0 -100.5 -27t-69.5 -64q-66 -94 -74 -325q159 0 236 6v-152q-68 2 -236 2q-2 -57 -2 -206q0 -246 2 -344q3 -95 21 -123q17 -27 88 -27q39 0 70 2 v-137q-220 8 -310 8q-50 0 -131.5 -3.5t-105.5 -4.5v137q18 -2 47 -2q61 0 78 29q14 25 14 121q2 164 2 550h-412q-2 -57 -2 -206q0 -221 5 -344q3 -101 16 -125q16 -25 86 -25q41 0 70 2v-137q-220 8 -306 8q-50 0 -142 -3.5t-112 -4.5z" />
<glyph horiz-adv-x="0" />
<glyph horiz-adv-x="682" />
<glyph unicode=" "  horiz-adv-x="448" />
<glyph unicode="&#x09;" horiz-adv-x="448" />
<glyph unicode="&#xa0;" horiz-adv-x="448" />
<glyph unicode="!" horiz-adv-x="659" d="M221 1249q0 76 38 118t114 42q151 0 151 -156q0 -59 -37 -360t-49 -455h-137q-9 166 -44.5 463t-35.5 348zM225 139q0 66 44.5 107t109.5 41t105 -41t40 -111q0 -69 -40.5 -109t-108.5 -40q-65 0 -107.5 40t-42.5 113z" />
<glyph unicode="&#x22;" horiz-adv-x="655" d="M61 1358q0 100 115 100q103 0 103 -100q0 -15 -12.5 -95.5t-28 -189t-21.5 -176.5h-90q-5 69 -21.5 177t-30.5 189t-14 95zM377 1358q0 100 115 100q100 0 100 -100q0 -16 -12 -96t-27.5 -188.5t-22.5 -176.5h-90q-5 69 -21 177t-29 189t-13 95z" />
<glyph unicode="#" horiz-adv-x="1288" d="M84 416v200h295l29 195h-273v201h299l60 401h124l-59 -401h266l60 401h125l-58 -401h254v-201h-282l-29 -195h264v-200h-291l-61 -436h-125l59 436h-266l-59 -436h-125l59 436h-266zM504 616h266l29 195h-267z" />
<glyph unicode="$" horiz-adv-x="1083" d="M66 248q0 60 34 93.5t80 33.5q100 0 113 -92q23 -151 194 -160v440l-94 49q-136 71 -197 147t-61 195q0 127 88.5 222.5t263.5 123.5v183h109v-172h20q159 0 245.5 -58t86.5 -147q0 -60 -31 -90.5t-88 -30.5q-42 0 -69 23.5t-33 62.5q-16 90 -131 103v-408l102 -49 q154 -74 217.5 -161t63.5 -194q0 -151 -100.5 -251t-282.5 -123v-187h-109v181q-191 1 -306 75.5t-115 190.5zM344 999q0 -61 31.5 -100.5t111.5 -81.5v350q-68 -17 -105.5 -61.5t-37.5 -106.5zM596 129q82 16 121 60.5t39 105.5q0 76 -34 120.5t-126 92.5v-379z" />
<glyph unicode="%" horiz-adv-x="1730" d="M51 862q0 208 95 328.5t268 120.5q147 0 233 -104t86 -289q0 -217 -89 -337t-261 -120q-156 0 -244 108.5t-88 292.5zM227 913q0 -190 42 -267t130 -77q78 0 117 68t39 225q0 174 -34.5 257t-127.5 83q-77 0 -121.5 -71t-44.5 -218zM514 0l578 1288h129l-576 -1288h-131z M997 381q0 207 95 326.5t270 119.5q146 0 232.5 -103.5t86.5 -287.5q0 -219 -89 -339t-261 -120q-157 0 -245.5 110t-88.5 294zM1174 432q0 -190 42 -267t130 -77q78 0 117.5 67t39.5 224q0 174 -35 258t-127 84q-78 0 -122.5 -71t-44.5 -218z" />
<glyph unicode="&#x26;" horiz-adv-x="1611" d="M72 406q0 307 348 421q-64 116 -64 226q0 154 119.5 255t325.5 101q148 0 224.5 -57t76.5 -135q0 -54 -32 -85.5t-89 -31.5q-90 0 -111 88q-24 86 -118 86q-72 0 -116 -42t-44 -114q0 -55 23.5 -116.5t93.5 -172.5q135 -213 346 -454q62 72 93.5 140.5t31.5 115.5 q0 37 -29 51t-82 14q-7 0 -26 -1t-27 -1v140q100 -5 293 -5q75 0 245 5v-138q-7 0 -26.5 1t-26.5 1q-64 0 -92 -41q-8 -10 -18 -27t-18 -32t-25.5 -48.5t-30.5 -57.5q-70 -124 -160 -226q87 -92 162 -92q38 0 73 23.5t78 76.5l103 -84q-73 -105 -160 -159t-174 -54 q-72 0 -130.5 24.5t-141.5 98.5q-165 -133 -400 -133q-219 0 -357 118.5t-138 320.5zM309 483q0 -60 24 -120.5t67 -111.5t112.5 -82.5t151.5 -31.5q51 0 107 21t91 51q-189 203 -346 453q-12 21 -21 28.5t-24 7.5q-24 0 -61 -26q-42 -30 -71.5 -81.5t-29.5 -107.5z" />
<glyph unicode="'" horiz-adv-x="339" d="M61 1358q0 100 115 100q103 0 103 -100q0 -15 -12.5 -95.5t-28 -189t-21.5 -176.5h-90q-5 69 -21.5 177t-30.5 189t-14 95z" />
<glyph unicode="(" horiz-adv-x="626" d="M72 567q0 298 120 542.5t340 424.5l84 -74q-167 -195 -238 -401t-71 -492q0 -253 77.5 -481t231.5 -403l-84 -78q-211 170 -335.5 413t-124.5 549z" />
<glyph unicode=")" horiz-adv-x="626" d="M10 -319q166 195 236.5 400.5t70.5 491.5q0 254 -77 482.5t-230 402.5l82 78q211 -170 337 -414t126 -549q0 -299 -120 -542.5t-341 -423.5z" />
<glyph unicode="*" horiz-adv-x="714" d="M61 1194q0 28 26 62t54 34q22 0 37.5 -12.5t50.5 -52.5q43 -49 93 -84q-6 58 -19 110q-22 77 -22 99q0 57 77 57q38 0 57 -13t19 -44q0 -37 -20 -105q-17 -67 -21 -102q7 5 13.5 10t15 12.5t14 13l16.5 16.5t17 17.5t20.5 21.5t22.5 23q33 33 63 33t53 -30t23 -64 q0 -37 -39 -51q-10 -4 -43 -13.5t-70.5 -22t-72.5 -26.5q38 -15 111 -36q65 -19 86 -29q24 -12 24 -43q0 -35 -25 -64.5t-51 -29.5q-18 0 -34 10.5t-50 46.5q-44 47 -94 86q2 -31 15 -90q3 -11 10.5 -37.5t11.5 -45t4 -36.5q0 -59 -76 -59q-77 0 -77 55q0 10 4.5 30.5 t12.5 52.5l11 44q11 51 13 86q-41 -34 -107 -104q-42 -46 -72 -46t-53.5 30t-23.5 63q0 49 51 61q95 24 172 55q-40 17 -150 47q-44 11 -61 24.5t-17 39.5z" />
<glyph unicode="+" horiz-adv-x="1232" d="M143 526v156h396v395h157v-395h394v-156h-394v-393h-157v393h-396z" />
<glyph unicode="," horiz-adv-x="509" d="M70 -219q49 17 106 57q64 43 64 101q0 54 -50 77q-86 40 -86 134q0 54 40.5 95.5t109.5 41.5q66 0 117 -49.5t51 -161.5q0 -135 -83 -234.5t-224 -156.5z" />
<glyph unicode="-" horiz-adv-x="659" d="M92 440v178q47 -4 246 -4q153 0 229 4v-178q-59 2 -227 2q-170 0 -248 -2z" />
<glyph unicode="." horiz-adv-x="505" d="M104 133q0 66 44.5 107t107.5 41q65 0 105 -41t40 -111q0 -69 -40.5 -109t-106.5 -40t-108 39.5t-42 113.5z" />
<glyph unicode="/" horiz-adv-x="833" d="M4 -236l614 1747h156l-614 -1747h-156z" />
<glyph unicode="0" d="M70 606q0 332 142 522.5t400 190.5q218 0 348 -164.5t130 -458.5q0 -347 -133.5 -537t-391.5 -190q-232 0 -363.5 173t-131.5 464zM317 692q0 -212 33.5 -342t91.5 -182.5t148 -52.5q81 0 134.5 46t83.5 156t30 287q0 143 -11.5 243t-39.5 177.5t-79 115.5t-126 38 q-123 0 -194 -121t-71 -365z" />
<glyph unicode="1" d="M244 1208q97 14 244.5 54t218.5 69l41 -28q-17 -145 -17 -578q0 -329 2 -440q3 -96 19 -121q16 -31 98 -31q55 0 88 2v-139q-228 8 -336 8q-10 0 -338 -8v139q27 -2 70 -2q100 0 129 33q22 28 22 119q2 137 2 321q0 246 -2 340q-2 109 -30 127q-19 12 -54 12 q-41 0 -131 -20z" />
<glyph unicode="2" d="M29 135q269 207 422 357.5t211.5 256.5t58.5 209q0 111 -49.5 166.5t-143.5 55.5q-90 0 -126.5 -41.5t-45.5 -116.5q-5 -47 -36.5 -75.5t-86.5 -28.5q-53 0 -85.5 33t-32.5 91q0 36 14.5 73t47.5 74t81.5 65.5t124 46.5t166.5 18q216 0 329 -97t113 -264 q0 -54 -12 -104.5t-53 -125t-110.5 -151.5t-194 -179.5t-293.5 -213.5q63 -2 209 -2q149 0 209.5 8t89.5 33q50 40 75 172l136 -12q-9 -58 -21.5 -191.5t-15.5 -195.5q-206 6 -484 6q-301 0 -479 -4z" />
<glyph unicode="3" d="M82 217q0 67 36.5 98t88.5 31q54 0 80.5 -25t36.5 -73q14 -71 60.5 -104t133.5 -33q120 0 189 62t69 187q0 132 -82 189t-237 57q-36 0 -86 -4v150q18 -2 61 -2q285 0 285 256q0 78 -48.5 128t-136.5 50q-132 0 -147 -103q-9 -56 -38.5 -84t-84.5 -28q-51 0 -85 27.5 t-34 86.5q0 44 24.5 85t71.5 76t126.5 56t179.5 21q211 0 315.5 -81.5t104.5 -223.5q0 -133 -80.5 -211.5t-214.5 -110.5q176 -15 268 -96.5t92 -228.5q0 -179 -144 -289.5t-378 -110.5q-100 0 -177.5 16.5t-123 42t-75 60t-40 66t-10.5 63.5z" />
<glyph unicode="4" d="M51 455q274 368 615 845h215q-4 -208 -4 -327v-441q85 0 229 7l-19 -185q-82 2 -208 2q0 -16 1 -53.5t1 -48.5q3 -74 18 -96q16 -27 102 -27q49 0 82 2v-137q-236 8 -331 8q-4 0 -324 -8v137q27 -2 64 -2q97 0 122 31q18 24 23 88q2 31 2 106q-375 0 -565 -4zM303 535 h336l2 475q-71 -104 -338 -475z" />
<glyph unicode="5" d="M88 219q0 58 35.5 89.5t83.5 31.5q95 0 110 -92q9 -54 52 -91.5t131 -37.5q128 0 204 80t76 217q0 139 -73 206.5t-193 67.5q-155 0 -254 -76l-63 33q16 98 29.5 198.5t30.5 239.5t24 193q94 -2 311 -2q248 0 383 4l-19 -186q-156 4 -528 4l-41 -283q95 43 211 43 q94 0 170 -23t134 -71.5t90 -130.5t32 -193q0 -71 -20.5 -137.5t-64 -126t-106.5 -104.5t-154.5 -71t-201.5 -26q-84 0 -152 16.5t-111 42t-72.5 58.5t-41.5 64.5t-12 62.5z" />
<glyph unicode="6" d="M111 567q0 174 44.5 317t123.5 239.5t190 149t242 52.5q151 0 232 -52.5t81 -135.5q0 -58 -33 -85.5t-86 -27.5q-94 0 -114 84q-21 76 -119 76q-52 0 -101 -25t-95.5 -79t-80 -154t-45.5 -234q48 64 135.5 103t200.5 39q172 0 276.5 -105.5t104.5 -282.5 q0 -223 -123 -351t-348 -128q-234 0 -359.5 155t-125.5 445zM354 420q0 -59 14 -112.5t42 -98.5t76 -71.5t110 -26.5q110 0 170.5 74t60.5 221q0 264 -233 264q-99 0 -169.5 -70t-70.5 -180z" />
<glyph unicode="7" d="M123 903q36 222 47 375q65 0 251.5 -1t270.5 -1q189 0 381 4l33 -43q-352 -709 -528 -1196q-20 -53 -44 -75.5t-71 -22.5q-43 0 -70.5 20t-27.5 53q0 43 24 97q202 488 481 985h-231q-167 0 -228 -7.5t-85 -29.5q-43 -40 -72 -168z" />
<glyph unicode="8" d="M98 307q0 114 66 198t213 144q-121 68 -170 149.5t-49 182.5q0 145 120 244.5t326 99.5q186 0 290.5 -80t104.5 -221q0 -178 -231 -305q161 -84 223 -167.5t62 -201.5q0 -77 -33 -145.5t-94.5 -122t-157 -84.5t-211.5 -31q-215 0 -337 92.5t-122 247.5zM305 336 q0 -110 69.5 -170t194.5 -60q108 0 174 55.5t66 139.5q0 96 -65 156.5t-248 130.5q-91 -46 -141 -111.5t-50 -140.5zM401 1018q0 -77 50.5 -132.5t189.5 -109.5q164 104 164 230q0 89 -54 135.5t-147 46.5q-91 0 -147 -46t-56 -124z" />
<glyph unicode="9" d="M96 856q0 212 129 340.5t346 128.5q238 0 359 -154t121 -446q0 -359 -150.5 -558.5t-439.5 -199.5q-152 0 -242 55.5t-90 137.5q0 58 31.5 86t85.5 28q93 0 116 -88q10 -42 46 -58.5t96 -16.5q270 0 311 489q-105 -133 -326 -133q-171 0 -282 106t-111 283zM330 893 q0 -133 62 -200.5t179 -67.5q102 0 172 67.5t70 179.5q0 80 -24.5 148t-81.5 115t-138 47q-111 0 -175 -73.5t-64 -215.5z" />
<glyph unicode=":" horiz-adv-x="546" d="M145 133q0 66 44.5 107t107.5 41q65 0 105 -41t40 -111q0 -69 -40 -109t-107 -40q-66 0 -108 39.5t-42 113.5zM145 770q0 67 44 108.5t108 41.5q65 0 105 -41t40 -111t-40 -111t-107 -41q-66 0 -108 40t-42 114z" />
<glyph unicode=";" horiz-adv-x="546" d="M102 -219q54 20 107 57q63 42 63 101q0 55 -51 77q-84 41 -84 134q0 54 40 95.5t110 41.5q66 0 117 -49.5t51 -161.5q0 -135 -83.5 -234.5t-224.5 -156.5zM145 770q0 67 44 108.5t108 41.5q65 0 105 -41t40 -111t-40 -111t-107 -41q-66 0 -108 40t-42 114z" />
<glyph unicode="&#x3c;" horiz-adv-x="1251" d="M199 516v160l809 391v-176l-639 -293l639 -293v-178z" />
<glyph unicode="=" horiz-adv-x="1251" d="M162 348v158h928v-158h-928zM162 705v155h928v-155h-928z" />
<glyph unicode="&#x3e;" horiz-adv-x="1251" d="M246 127v174l635 295l-635 291v180l807 -389v-160z" />
<glyph unicode="?" horiz-adv-x="985" d="M106 1135q0 46 24.5 93t72 90t131 70t188.5 27q199 0 304.5 -82.5t105.5 -212.5q0 -120 -56 -203.5t-214 -171.5q-46 -25 -72.5 -41.5t-54 -41.5t-40 -53.5t-12.5 -63.5q0 -37 19 -92l-131 -39q-41 87 -41 170q0 88 38 147.5t160 145.5q77 55 109.5 106.5t32.5 124.5 q0 158 -170 158q-147 0 -156 -158q-8 -96 -123 -96q-49 0 -82 29.5t-33 93.5zM289 139q0 66 44 107t107 41q65 0 105.5 -41t40.5 -111q0 -68 -40.5 -108.5t-107.5 -40.5q-65 0 -107 40t-42 113z" />
<glyph unicode="@" horiz-adv-x="1705" d="M109 463q0 186 66 349t180 279.5t275.5 184t346.5 67.5q297 0 468 -155t171 -449q0 -114 -39 -224t-106 -194.5t-164 -136t-205 -51.5q-67 0 -101 35t-34 94q0 67 18 141q-189 -272 -389 -272q-82 0 -122 52t-40 134q0 247 203 486q64 78 153.5 123t178.5 45 q105 0 164 -19l26 47l160 11q-49 -161 -105 -375q-65 -246 -65 -316q0 -21 12.5 -36t38.5 -15q69 0 132 72.5t99.5 180.5t36.5 212q0 256 -127 378t-362 122q-152 0 -284 -58.5t-225.5 -160.5t-147.5 -246.5t-54 -310.5q0 -188 82.5 -327.5t222.5 -210.5t316 -71 q167 0 295.5 42t249.5 120l63 -102q-111 -83 -282 -132.5t-349 -49.5q-221 0 -392.5 90t-268 258t-96.5 389zM639 371q0 -35 15.5 -52.5t39.5 -17.5q55 0 130 66.5t159 207.5q39 68 61 146q15 53 15 76q0 57 -103 57q-99 0 -192 -137q-60 -90 -92.5 -183t-32.5 -163z" />
<glyph unicode="A" horiz-adv-x="1445" d="M4 -4v139q5 0 16 -1t17 -1q66 0 99.5 38t76.5 138q402 938 455 1084h184q77 -242 430 -1151q24 -62 52 -85.5t73 -23.5q5 0 18 1t19 1v-137q-80 6 -293 6q-186 0 -293 -8v139q23 -2 72 -2q50 0 68 12t18 45q0 42 -76 250q-12 29 -29 31q-21 6 -231 6q-136 0 -191 -2 q-33 0 -49 -37q-84 -209 -84 -250q0 -32 19 -43.5t67 -11.5q53 0 76 2v-139q-107 8 -244 8q-131 0 -270 -8zM524 647q0 -14 13 -18q12 -4 147 -4q113 0 150 2q26 3 26 24q0 12 -6 27q-30 85 -80 225.5t-69 194.5q-3 -7 -72 -172.5t-101 -247.5q-8 -24 -8 -31z" />
<glyph unicode="B" horiz-adv-x="1341" d="M57 -4v139q25 -2 70 -2q71 0 86 27q10 23 10 125q2 164 2 436q0 96 -1 232t-1 147q0 93 -14 121q-13 26 -82 26q-43 0 -68 -2v139q240 -6 283 -6q36 0 171 3t173 3q105 0 186 -14t150.5 -47.5t107 -98t37.5 -157.5q0 -268 -311 -334q195 -10 294 -98.5t99 -237.5 q0 -91 -32 -162.5t-84.5 -116t-127.5 -73t-153.5 -40t-169.5 -11.5q-60 0 -180 5t-160 5q-51 0 -162.5 -4t-122.5 -4zM467 580q0 -173 6.5 -261.5t16.5 -113t30 -39.5q41 -33 172 -33q133 0 210 64.5t77 179.5q0 75 -28.5 129.5t-80 85.5t-114 45t-140.5 14q-117 0 -133 -16 t-16 -55zM467 901q0 -49 3.5 -66.5t16.5 -27.5q19 -12 115 -12q309 0 309 247q0 102 -84 154.5t-213 52.5q-105 0 -127 -32q-20 -26 -20 -316z" />
<glyph unicode="C" horiz-adv-x="1353" d="M86 651q0 152 37.5 279t102.5 215t153.5 149.5t189 90t209.5 28.5q80 0 170 -22q12 -3 33 -9.5t34 -10t21 -3.5q47 0 47 37l117 6q20 -281 43 -436l-139 -17q-18 82 -39 133.5t-58.5 94t-97 61.5t-147.5 19q-80 0 -152.5 -32.5t-133 -96t-96.5 -172.5t-36 -248 q0 -116 24.5 -210.5t66.5 -158.5t100.5 -107.5t125 -63t140.5 -19.5q231 0 397 192l98 -104q-234 -279 -579 -279q-281 0 -456 189t-175 495z" />
<glyph unicode="D" horiz-adv-x="1550" d="M59 -4v139q25 -2 58 -2q80 0 92 27q14 28 14 125q2 125 2 436q0 328 -2 379q-4 103 -12 123q-13 24 -88 24q-44 0 -64 -2v139q12 0 126.5 -4t160.5 -4q34 0 169 3t179 3q176 0 309 -35t233 -111.5t152 -207t52 -313.5q0 -152 -50 -282t-143.5 -227.5t-240 -152.5 t-328.5 -55q-60 0 -184 3t-148 3q-51 0 -164 -4t-123 -4zM469 715q0 -291 6 -416q5 -78 31 -111q39 -45 213 -45q224 0 334 141.5t110 436.5q0 94 -15 170t-50 142t-90.5 110.5t-140.5 70t-195 25.5q-148 0 -170 -20q-26 -23 -29 -99q-4 -102 -4 -405z" />
<glyph unicode="E" horiz-adv-x="1267" d="M57 -4v139q25 -2 68 -2q71 0 86 31q12 22 12 123q2 160 2 434q0 326 -2 379q-4 106 -12 119q-14 28 -86 28q-41 0 -66 -2v139q26 -1 90.5 -3t121 -3.5t94.5 -1.5q500 0 727 8q8 -182 26 -340l-125 -6q-14 84 -30.5 119t-42.5 51q-30 18 -80 25.5t-174 7.5q-95 0 -140 -4 q-40 -3 -47 -37q-10 -41 -10 -321q0 -56 18 -68q12 -8 134 -8q89 0 131 9t63 30q26 28 37 121h121q-8 -204 -8 -250q0 -155 6 -226h-123q-8 103 -47 131q-39 31 -185 31q-121 0 -133 -12q-14 -14 -14 -55q0 -201 8 -280t25 -107q15 -29 53 -41.5t137 -12.5q126 0 186.5 9 t96.5 36q75 60 104 222l133 -9q-31 -228 -51 -401q-394 4 -813 4q-63 0 -291 -6z" />
<glyph unicode="F" horiz-adv-x="1208" d="M59 -4v141q25 -2 62 -2q44 0 64 7t28 24q10 22 10 119q2 164 2 436q0 96 -1 232t-1 147q0 103 -10 123q-12 24 -92 24q-44 0 -62 -2v139q212 -8 330 -8q439 0 731 8q10 -209 29 -378l-131 -7q-28 163 -82 203q-28 22 -84 30.5t-186 8.5q-101 0 -146 -4q-21 -1 -32 -14 t-13 -29q-8 -79 -8 -369q0 -36 20 -43q32 -8 103 -8q98 0 136 8t56 31q27 38 33 121h121q-6 -171 -6 -244q0 -105 6 -246h-123q-5 121 -45 146q-48 33 -184 33q-84 0 -101 -13q-16 -13 -16 -47q0 -172 6 -274q5 -91 39 -125q32 -29 104 -29q39 0 72 2v-141q-228 8 -323 8 q-26 0 -306 -8z" />
<glyph unicode="G" horiz-adv-x="1511" d="M86 657q0 227 90.5 399.5t250.5 264.5t366 92q118 0 221 -27q70 -18 86 -18q18 0 28.5 10.5t12.5 26.5l116 6q7 -168 41 -430l-131 -18q-30 154 -120.5 228.5t-268.5 74.5q-197 0 -315.5 -144.5t-118.5 -402.5q0 -144 34.5 -256t94.5 -181t137.5 -104t167.5 -35 q91 0 159 25.5t95 75.5q21 43 21 151q0 97 -17 121q-21 31 -104 31q-45 0 -72 -2v139q147 -6 314 -6q157 0 262 6v-139q-14 2 -50 2q-52 0 -71 -25q-17 -26 -17 -129q0 -262 17 -375l-146 -14q-9 30 -16 45q-10 23 -39 23q-16 0 -53 -21q-153 -86 -336 -86 q-187 0 -331.5 83.5t-226 241.5t-81.5 367z" />
<glyph unicode="H" horiz-adv-x="1583" d="M57 -4v139q15 0 38.5 -1t31.5 -1q71 0 86 27q10 23 10 125q2 164 2 436q0 96 -1 232t-1 147q0 98 -10 121q-14 26 -86 26q-41 0 -68 -2v139q160 -8 283 -8q185 0 299 8v-139q-31 2 -76 2q-58 0 -73 -24q-16 -21 -19 -125q0 -12 -2 -92.5t-2 -141.5q0 -29 3.5 -39 t16.5 -14q23 -8 304 -8q269 0 294 8q19 5 19 53q0 56 -1 141t-1 95q0 99 -12 121q-14 26 -86 26q-41 0 -66 -2v139q14 0 121 -4t158 -4q189 0 303 8v-139q-33 2 -76 2q-59 0 -74 -24q-15 -26 -18 -123q-4 -168 -4 -377q0 -290 4 -438q3 -108 18 -127q12 -25 74 -25 q6 0 32.5 1t43.5 1v-139q-236 8 -303 8q-51 0 -159.5 -4t-121.5 -4v139q15 0 38 -1t30 -1q71 0 86 27q12 22 12 125q0 56 1 162t1 143q0 40 -14 49q-20 10 -299 10q-288 0 -308 -10q-16 -9 -16 -49q0 -199 4 -305q3 -106 19 -127q16 -25 73 -25q5 0 31.5 1t44.5 1v-139 q-132 8 -299 8q-51 0 -162.5 -4t-122.5 -4z" />
<glyph unicode="I" horiz-adv-x="702" d="M57 -4v139q15 0 38.5 -1t31.5 -1q71 0 86 27q10 23 10 125q2 158 2 436q0 96 -1 231t-1 148q0 99 -12 123t-84 24q-41 0 -68 -2v139q11 0 122.5 -4t162.5 -4q71 0 299 8v-139q-31 2 -76 2q-57 0 -73 -22q-14 -24 -17 -127q-4 -160 -4 -367q0 -298 4 -446q3 -106 17 -127 q16 -25 73 -25q6 0 33.5 1t44.5 1v-139q-228 8 -301 8q-51 0 -164 -4t-123 -4z" />
<glyph unicode="J" horiz-adv-x="692" d="M-182 -182q0 46 31 77t75 31q40 0 63.5 -14t45.5 -51t61 -37q58 0 90 63q33 69 46.5 239.5t13.5 598.5q0 253 -4 375q-3 88 -19 119q-14 28 -84 28q-44 0 -71 -2v139q21 -1 82.5 -3t115 -3.5t90.5 -1.5q27 0 299 8v-139q-31 2 -65 2q-59 0 -76 -24q-15 -25 -18 -121 q-5 -185 -5 -377q0 -81 3.5 -242t3.5 -207q0 -225 -68 -354q-60 -117 -165 -185.5t-228 -68.5q-102 0 -159.5 39t-57.5 111z" />
<glyph unicode="K" horiz-adv-x="1413" d="M59 -4v141q25 -2 62 -2q77 0 92 27q10 20 10 123q2 164 2 436q0 80 -1 222.5t-1 158.5q0 101 -10 121q-12 24 -92 24q-37 0 -62 -2v139q15 0 115.5 -4t151.5 -4q87 0 315 8v-139q-27 2 -72 2q-65 0 -80 -24q-10 -19 -16 -121q-4 -148 -4 -266q0 -26 9.5 -39t37.5 -13 q74 0 162 88q160 161 207 227.5t47 104.5q0 22 -20 32.5t-70 10.5q-33 0 -43 -2v139q101 -8 291 -8q142 0 268 8v-139q-10 2 -35 2q-51 0 -91 -19.5t-83 -68.5q-176 -192 -375 -391q292 -403 432 -549q43 -45 82.5 -63.5t93.5 -18.5h33v-141q-132 8 -184 8q-123 0 -193 -8 q-44 47 -144.5 181.5t-213.5 299.5q-78 113 -114 145.5t-66 32.5q-31 0 -31 -39q0 -209 4 -331q3 -105 16 -127q14 -23 80 -23q45 0 72 2v-141q-228 8 -315 8q-51 0 -151.5 -4t-115.5 -4z" />
<glyph unicode="L" horiz-adv-x="1239" d="M57 -4v139q25 -2 70 -2q67 0 84 31q12 22 12 123q2 164 2 434q0 54 -1 206.5t-1 172.5q0 92 -12 119q-16 28 -88 28q-39 0 -64 -2v139q11 0 122.5 -4t162.5 -4q175 0 301 8v-139q-31 2 -76 2q-64 0 -80 -26q-18 -30 -18 -127q-4 -188 -4 -344q0 -304 8 -414.5t27 -142.5 q19 -30 59 -42t144 -12q204 0 266 39q33 20 63.5 79.5t48.5 150.5l134 -7q-28 -179 -54 -403q-394 4 -815 4q-63 0 -291 -6z" />
<glyph unicode="M" horiz-adv-x="1794" d="M39 -4v139q12 0 33 -1t28 -1q61 0 82 27q19 30 27 129q49 667 49 817q0 73 -31 108q-7 12 -30.5 22.5t-57.5 10.5q-32 0 -55 -2v139q171 -6 291 -6q103 0 196 6q26 -101 47 -163q26 -72 125.5 -334t143.5 -381q36 88 105.5 256.5t119 289.5t70.5 177q28 80 43 155 q117 -6 221 -6q91 0 262 6v-139q-29 2 -66 2q-69 0 -88 -28q-16 -24 -16 -107q0 -130 31 -836q3 -88 20 -114q13 -29 94 -29q6 0 22 1t32 1v-139q-280 8 -330 8q-4 0 -256 -8v139q15 0 35.5 -1t27.5 -1q78 0 93 31q14 22 14 115q0 253 -25 811q-336 -802 -399 -965h-131 q-80 234 -354 960q-3 -73 -9.5 -218.5t-10.5 -236.5t-7.5 -197t-3.5 -169q0 -81 14 -102q23 -29 86 -29q7 0 28 1t36 1v-139q-220 8 -271 8q-37 0 -80.5 -1.5t-90 -3.5t-64.5 -3z" />
<glyph unicode="N" horiz-adv-x="1583" d="M45 1245v139q99 -6 262 -6q81 0 180 6q49 -87 115 -172q357 -467 606 -770q-4 475 -12 652q-2 84 -22 123q-18 30 -91 30q-46 0 -71 -2v141q132 -8 278 -8q26 0 246 8v-141q-31 2 -57 2q-60 0 -82 -22q-24 -21 -27 -121q-6 -408 -6 -569q0 -343 12 -535l-137 -27 q-182 239 -453 586t-409 518q0 -452 14 -807q2 -74 25 -108q23 -29 86 -29q5 0 32.5 1t43.5 1v-139q-126 8 -283 8q-2 0 -246 -8v139q16 0 37 -1t29 -1q57 0 84 27q19 22 22 133q4 303 4 790q0 54 -6 79.5t-22 45.5q-31 37 -95 39q-34 0 -57 -2z" />
<glyph unicode="O" horiz-adv-x="1550" d="M86 659q0 347 200 550.5t537 203.5q136 0 254 -47.5t203.5 -133.5t134.5 -214.5t49 -282.5q0 -353 -198 -560.5t-525 -207.5q-295 0 -475 187.5t-180 504.5zM346 725q0 -294 122.5 -451t328.5 -157q186 0 290.5 138t104.5 407q0 95 -13 179t-44.5 164t-79.5 137 t-123.5 91.5t-171.5 34.5q-190 0 -302 -145t-112 -398z" />
<glyph unicode="P" horiz-adv-x="1241" d="M59 -4v139q25 -2 62 -2q80 0 92 27q10 20 10 125q2 164 2 436q0 96 -1 231t-1 148q0 104 -10 121q-8 16 -28.5 21t-63.5 5q-37 0 -62 -2v139q240 -6 287 -6q34 0 158.5 3t163.5 3q495 0 495 -362q0 -447 -583 -447q-48 0 -111 5q0 -155 4 -295q3 -96 27 -127 q21 -25 80 -25q46 0 79 2v-139q-228 8 -313 8q-51 0 -166 -4t-121 -4zM469 799q0 -35 6 -51.5t23 -22.5q33 -10 104 -10q153 0 225 66t72 229q0 117 -74.5 176t-216.5 59q-54 0 -79 -5t-37 -19q-14 -14 -19 -101q-4 -53 -4 -321z" />
<glyph unicode="Q" horiz-adv-x="1550" d="M86 659q0 347 200 550.5t537 203.5q136 0 254 -47.5t203.5 -133.5t134.5 -214.5t49 -282.5q0 -267 -116.5 -454t-321.5 -265q116 -75 227 -135q68 -36 103.5 -48.5t73.5 -12.5q22 0 60 13t58 26l64 -119q-36 -17 -86 -43t-112 -59.5t-89 -47.5q-223 90 -631 379 q-276 15 -442 200t-166 490zM346 725q0 -294 122.5 -451t328.5 -157q186 0 290.5 138t104.5 407q0 95 -12.5 179t-43.5 164t-78.5 137t-122.5 91.5t-171 34.5q-191 0 -304.5 -145t-113.5 -398z" />
<glyph unicode="R" horiz-adv-x="1372" d="M61 -4v139q25 -2 60 -2q75 0 88 29q14 25 14 123q2 137 2 436q0 96 -1 232t-1 147q0 99 -12 123q-13 24 -84 24q-41 0 -66 -2v139q12 0 119.5 -4t157.5 -4q38 0 154.5 2t171.5 2q514 0 514 -364q0 -202 -160 -311q-64 -41 -84 -50q-25 -13 -25 -24q0 -7 13 -33 q8 -14 17.5 -28.5t21 -31.5t18.5 -28q14 -21 44 -67.5t42.5 -65t34.5 -50.5t41 -57.5t41 -52.5q40 -50 74.5 -66t93.5 -16h22v-139q-50 6 -186 6q-110 0 -168 -6q-26 34 -51 69.5t-53 78.5t-47 73.5t-51.5 85t-47 79t-52.5 89.5t-50 86q-11 21 -26.5 28t-43.5 9q-11 0 -45 1 t-39 1q-25 0 -33 -6q-12 -8 -12 -53q0 -104 4 -252q5 -98 23 -125q17 -27 75 -27q37 0 70 2v-139q-118 8 -307 8q-50 0 -153.5 -4t-117.5 -4zM467 788q0 -45 31 -49q50 -4 88 -4q59 0 104.5 6.5t88.5 24.5t70.5 47.5t44.5 78t17 114.5q0 237 -313 237q-57 0 -81 -5.5 t-34 -25.5q-10 -18 -10 -75q0 -29 -3 -157.5t-3 -191.5z" />
<glyph unicode="S" horiz-adv-x="1110" d="M57 426l138 10q27 -143 121.5 -231t230.5 -88q133 0 202.5 53.5t69.5 148.5q0 77 -46 129t-187 115l-160 72q-165 75 -239 165.5t-74 229.5q0 75 30 142t87 120.5t149.5 85t208.5 31.5q72 0 143 -23q74 -20 82 -20q35 0 43 37l113 4q3 -153 37 -401l-140 -13 q-13 68 -31 115t-50 85.5t-83 57.5t-122 19q-114 0 -180 -52.5t-66 -134.5q0 -79 41 -128t162 -99l141 -59q110 -46 181.5 -91.5t111 -97.5t54.5 -106t15 -127q0 -175 -134.5 -289.5t-350.5 -114.5q-126 0 -217 43q-58 27 -78 27q-21 0 -31.5 -10.5t-13.5 -36.5l-123 -2 q-2 90 -12 223.5t-23 210.5z" />
<glyph unicode="T" horiz-adv-x="1318" d="M31 997q22 163 37 389q139 -8 573 -8q498 0 623 8q3 -194 16 -389l-143 -8q-8 59 -15 96t-19 68t-25.5 46.5t-38 26.5t-53 14t-73.5 3q-103 0 -114 -16q-15 -18 -15 -74q-2 -90 -2 -428q0 -264 4 -430q3 -110 17 -131q11 -16 30 -23.5t68 -7.5q7 0 27.5 1t34.5 1v-139 q-25 1 -89.5 3t-120 3.5t-91.5 1.5q-182 0 -304 -8v139q17 0 42.5 -1t31.5 -1q68 0 86 29q17 28 17 125q2 156 2 434q0 289 -7 436q-3 54 -14 68q-8 11 -33 14.5t-82 3.5q-42 0 -70.5 -3.5t-52.5 -15t-38.5 -27.5t-28.5 -47.5t-23.5 -68t-21.5 -94.5z" />
<glyph unicode="U" horiz-adv-x="1560" d="M45 1245v139q148 -8 295 -8q157 0 297 8v-139q-20 2 -57 2q-80 0 -99 -24q-23 -26 -26 -131q-6 -282 -6 -533q0 -223 86.5 -321.5t285.5 -98.5q197 0 283 114.5t86 332.5q0 444 -4 512q-3 98 -27 125q-21 24 -90 24q-45 0 -63 -2v139q144 -8 299 -8q85 0 225 8v-139 q-23 2 -53 2q-39 0 -52.5 -4t-33.5 -20q-25 -22 -25 -131q-2 -182 -2 -549q0 -280 -141.5 -429t-425.5 -149q-310 0 -452 132t-142 384q0 150 2 357t2 260q0 93 -19 125q-17 24 -84 24q-39 0 -59 -2z" />
<glyph unicode="V" horiz-adv-x="1431" d="M0 1245v139q78 -6 297 -6q229 0 307 6v-139q-4 0 -33.5 1t-44.5 1q-49 0 -67.5 -15t-18.5 -48q0 -46 66 -221q44 -118 133 -348.5t121 -315.5q153 372 233 590q86 235 86 297q0 61 -78 61q-14 0 -42.5 -1t-34.5 -1v139q80 -6 266 -6q138 0 242 6v-139q-8 2 -37 2 q-52 0 -80.5 -37.5t-67.5 -136.5q-27 -67 -203.5 -488.5t-242.5 -592.5h-191q-103 309 -444 1149q-24 61 -51 83.5t-70 22.5q-35 0 -45 -2z" />
<glyph unicode="W" horiz-adv-x="2011" d="M0 1245v139q78 -6 301 -6q205 0 283 6v-139q-16 2 -84 2q-38 0 -56 -14.5t-18 -46.5q0 -54 47 -246q22 -90 47.5 -189.5t55 -210t42.5 -159.5q25 71 75.5 210.5t71.5 198.5t57 161t56 161t44 132t43 136h186q30 -103 71 -233.5t121 -378t125 -389.5q90 324 150 571 q45 173 45 230q0 37 -20.5 52t-63.5 17q-15 0 -40.5 -1t-27.5 -1v137q82 -6 267 -6q129 0 233 6v-137q-12 2 -37 2q-53 0 -79.5 -28.5t-47.5 -100.5q-158 -532 -321 -1128h-191q-135 459 -319 1003q-45 -125 -185.5 -502.5t-185.5 -500.5h-186q-89 414 -295 1145 q-18 63 -47 86.5t-82 23.5q-21 0 -35 -2z" />
<glyph unicode="X" horiz-adv-x="1519" d="M23 -4v141q5 0 15.5 -1t14.5 -1q63 0 106 29t91 90q73 87 362 463q-310 414 -340 452q-62 78 -143 78q-29 0 -45 -2v139q107 -8 287 -8q238 0 342 8v-139q-12 2 -64 2q-67 0 -67 -43q0 -22 45 -88q59 -91 182 -252q17 23 45 60.5t44 59.5t35 49t32 48q63 96 63 125 q0 22 -16.5 31.5t-61.5 9.5q-15 0 -38 -1t-25 -1v139q78 -6 303 -6q166 0 244 6v-139q-12 2 -37 2q-48 0 -85 -21.5t-77 -68.5q-94 -117 -326 -422q154 -214 342 -463q67 -88 101 -112.5t98 -24.5q31 0 45 2v-141q-114 6 -301 6q-295 0 -395 -6v141q6 0 37 -1t47 -1 q94 0 94 51q0 14 -12 35.5t-54 85.5q-17 25 -43 60.5t-71.5 99t-83.5 115.5q-158 -199 -221 -289q-50 -71 -50 -109q0 -27 25.5 -37t81.5 -12q16 0 45 1t31 1v-141q-80 6 -330 6q-164 0 -272 -6z" />
<glyph unicode="Y" horiz-adv-x="1349" d="M0 1245v139q78 -6 285 -6q247 0 325 6v-139q-2 0 -22.5 1t-36.5 1q-52 0 -73.5 -9.5t-22.5 -37.5q0 -39 53 -123q21 -34 51 -80.5t76 -117.5t78 -121q169 264 207 329q36 64 36 105q0 28 -18.5 41t-77.5 14q-14 0 -24 -0.5t-15.5 -1t-7.5 -0.5v139q78 -6 279 -6 q180 0 258 6v-139q-10 2 -31 2q-49 0 -83 -23.5t-71 -74.5q-121 -163 -379 -567q0 -48 2 -137.5t3 -161.5q0 -99 12 -121q16 -29 96 -29q43 0 68 2v-139q-24 1 -86.5 3t-117.5 3.5t-93 1.5q-187 0 -301 -8v139q37 -2 77 -2q64 0 78 27q16 24 19 123q2 72 2 295 q-35 60 -68.5 114t-77 121t-65 99.5t-82 123t-78.5 117.5q-34 52 -65 73t-74 21q-23 0 -35 -2z" />
<glyph unicode="Z" horiz-adv-x="1284" d="M41 47q122 181 407.5 620t374.5 572q-22 -1 -156.5 -2.5t-181.5 -3.5q-102 -3 -151.5 -21t-79.5 -65.5t-55 -151.5l-123 19q31 148 67 372q139 -8 488 -8q333 0 555 4l20 -49q-295 -414 -800 -1181q107 -7 331 -7q63 0 93 1t75.5 5.5t66.5 15t50.5 29t45 47.5t32 70.5 t28.5 98.5l125 -11q-41 -278 -51 -405q-141 8 -600 8q-313 0 -539 -4z" />
<glyph unicode="[" horiz-adv-x="610" d="M143 -340q7 161 7 907q0 742 -7 903q98 -4 275 -4q102 0 168 4v-122q-152 4 -219 4q-5 -85 -5 -787q0 -699 5 -784q137 0 215 2v-123q-62 4 -164 4q-197 0 -275 -4z" />
<glyph unicode="\" horiz-adv-x="833" d="M23 1511h155l615 -1747h-156z" />
<glyph unicode="]" horiz-adv-x="610" d="M25 -215q76 -4 219 -4q4 68 4 786q0 717 -4 785q-137 0 -215 -2v120q62 -4 164 -4q196 0 274 4q-6 -138 -6 -905t6 -905q-98 4 -274 4q-102 0 -168 -4v125z" />
<glyph unicode="^" horiz-adv-x="1179" d="M193 690l319 676h162l311 -676h-170l-225 504l-223 -504h-174z" />
<glyph unicode="_" horiz-adv-x="997" d="M-4 -147h1005v-107h-1005v107z" />
<glyph unicode="`" horiz-adv-x="573" d="M94 1427l180 86q80 -159 207 -383l-67 -40q-222 226 -320 337z" />
<glyph unicode="a" horiz-adv-x="1093" d="M61 260q0 180 183 240q44 15 96 26t134.5 24.5t119.5 20.5q53 9 69.5 26t16.5 60q0 116 -41.5 160.5t-134.5 44.5q-76 0 -105 -37q-24 -24 -30 -80q-4 -37 -35 -54t-74 -17q-49 0 -79.5 24.5t-30.5 79.5q0 98 111.5 164t307.5 66q165 0 249.5 -62.5t84.5 -216.5 q0 -40 -6 -189t-6 -237q0 -71 11.5 -109t27.5 -47.5t43 -9.5q37 0 74 15l24 -132q-41 -17 -102 -28.5t-107 -11.5q-87 0 -133.5 28.5t-60.5 108.5q-73 -73 -154 -108.5t-156 -35.5q-131 0 -214 84.5t-83 202.5zM301 274q0 -55 37.5 -89.5t99.5 -34.5q43 0 89.5 15t76.5 40 q68 57 68 186q0 45 -41 45q-86 0 -228 -43q-102 -32 -102 -119z" />
<glyph unicode="b" horiz-adv-x="1196" d="M0 1350v137q249 0 383 39l23 -27q-15 -118 -17 -665q78 83 182.5 131.5t196.5 48.5q172 0 262 -125t90 -346q0 -251 -136.5 -407t-371.5 -156q-172 0 -299 65l-63 -98l-105 26q21 196 21 768q0 262 -4 480q-3 83 -26 107t-83 24q-33 0 -53 -2zM387 442q0 -110 19 -188 q17 -63 74 -98t138 -35q259 0 259 344q0 198 -57 283.5t-171 85.5q-79 0 -156.5 -58.5t-91.5 -142.5q-14 -86 -14 -191z" />
<glyph unicode="c" horiz-adv-x="985" d="M76 446q0 250 148 407t388 157q139 0 219 -57t80 -140q0 -66 -32 -93.5t-80 -27.5q-92 0 -111 80q-13 54 -38.5 72t-78.5 18q-106 0 -183 -91t-77 -263q0 -177 76.5 -266.5t194.5 -89.5q150 0 278 141l96 -90q-175 -234 -444 -234q-201 0 -318.5 130.5t-117.5 346.5z" />
<glyph unicode="d" horiz-adv-x="1249" d="M76 432q0 123 30 223t80 165.5t116 110t135.5 64t142.5 19.5q147 0 237 -49q0 142 -8 278q-3 67 -24 88t-83 21q-35 0 -51 -2v139q258 0 383 37l23 -25q-16 -125 -19 -727q0 -316 4 -461q2 -81 10.5 -117t25.5 -47.5t57 -11.5q33 0 69 4v-137q-243 0 -381 -27l-22 21 q6 40 14 152q-147 -177 -344 -177q-81 0 -151 27.5t-125.5 82t-87 144t-31.5 205.5zM322 471q0 -158 62 -242t169 -84q55 0 114 25t95 72q32 42 42.5 111t10.5 198q0 173 -35 227q-49 84 -184 84q-126 0 -200 -104t-74 -287z" />
<glyph unicode="e" horiz-adv-x="1024" d="M76 453q0 242 142.5 399.5t371.5 157.5q178 0 275.5 -104.5t97.5 -282.5q0 -55 -19 -77.5t-65 -25.5q-159 -9 -570 -12q-2 -20 -2 -53q0 -43 9 -84t30 -81t53 -69.5t83 -48t114 -18.5q156 0 293 147l98 -92q-94 -116 -205 -178t-254 -62q-212 0 -332 132t-120 352z M326 664q0 -25 26 -25q31 -2 119 -2q199 0 234 25q20 17 20 55q0 78 -47 114.5t-121 36.5q-47 0 -89.5 -14.5t-79.5 -50t-54 -88.5q-8 -32 -8 -51z" />
<glyph unicode="f" horiz-adv-x="690" d="M61 -4v137q25 -2 52 -2q77 0 92 27q12 27 12 123q2 164 2 548q-61 0 -143 -4v144q83 0 110 12q19 8 28 27.5t15 70.5q19 145 66 230q122 217 375 217q107 0 170 -45t63 -121q0 -53 -31 -78t-75 -25q-85 0 -107 76q-9 32 -27 45t-49 13q-36 0 -66.5 -24t-49.5 -60 q-48 -94 -52 -332q160 0 236 6v-152q-68 2 -236 2q-2 -57 -2 -206q0 -221 5 -344q3 -101 16 -125q16 -25 90 -25q51 0 82 2v-137q-220 8 -322 8q-50 0 -142 -3.5t-112 -4.5z" />
<glyph unicode="g" horiz-adv-x="1103" d="M37 -270q0 76 49 133t166 108q-103 19 -150 72t-47 121q0 73 43.5 132.5t145.5 109.5q-51 35 -82 99.5t-31 137.5q0 160 112.5 262.5t323.5 102.5q166 0 267 -82q14 74 59.5 117.5t114.5 43.5q108 0 108 -86q0 -83 -76 -83q-13 0 -34.5 5t-36.5 5q-37 0 -37 -64 q0 -28 10 -73q16 -66 16 -107q0 -168 -111 -267.5t-321 -99.5q-65 0 -135 17q-24 4 -39 4q-19 0 -39 -10q-27 -10 -44 -35.5t-17 -52.5q0 -40 32 -60t119 -20q50 0 178 3t160 3q176 0 250 -64t74 -182q0 -204 -170 -322t-438 -118q-196 0 -308 70.5t-112 179.5zM252 -213 q0 -72 73.5 -110.5t196.5 -38.5q137 0 222 51.5t85 144.5q0 45 -15.5 70.5t-65.5 41t-142 15.5q-67 0 -129 -4q-96 -10 -149 -47q-76 -57 -76 -123zM369 674q0 -211 178 -211q86 0 133 51.5t47 144.5q0 90 -45 147.5t-135 57.5q-84 0 -131 -53.5t-47 -136.5z" />
<glyph unicode="h" horiz-adv-x="1263" d="M43 1350v137q253 0 385 39l21 -27q-13 -129 -15 -661q205 170 367 170q192 0 243 -179q11 -37 16 -91t6 -96.5t1 -127.5v-231q0 -106 14 -127q16 -25 80 -25q33 0 60 2v-137q-236 8 -263 8q-49 0 -148 -4t-116 -4v137q20 -2 51 -2q57 0 74 31q15 28 21 75t6 144 q0 178 -10 264.5t-39 122.5q-39 51 -121 51q-51 0 -108 -25.5t-93 -70.5q-43 -55 -43 -211q0 -145 2 -229q3 -105 15 -127q16 -25 71 -25q30 0 55 2v-137q-236 8 -251 8q-51 0 -158.5 -4t-118.5 -4v137q27 -2 51 -2q73 0 92 29q15 25 15 123q2 92 2 317q0 522 -4 631 q-1 43 -7.5 67.5t-22 36t-32 14.5t-47.5 3q-33 0 -51 -2z" />
<glyph unicode="i" horiz-adv-x="645" d="M57 834v137q250 0 387 37l19 -27q-19 -186 -19 -442q0 -168 2 -252q3 -109 15 -131q16 -25 80 -25q24 0 57 2v-137q-114 8 -266 8q-50 0 -160 -4l-111 -4v137q25 -2 52 -2q75 0 90 27q10 18 14 129q2 74 2 219q0 202 -10 278q-9 52 -100 52q-27 0 -52 -2zM162 1321 q0 66 38.5 103.5t106.5 37.5q66 0 102.5 -38t36.5 -101q0 -67 -39 -104t-104 -37q-63 0 -102 37t-39 102z" />
<glyph unicode="j" horiz-adv-x="610" d="M-184 -373q0 52 30.5 80.5t77.5 28.5q73 0 103 -82q3 -11 15 -20t26 -9q28 0 57 23t43 69q35 106 35 648q0 348 -13 419q-5 27 -26 39.5t-72 12.5q-26 0 -51 -2v137q248 0 385 37l20 -27q-18 -181 -18 -455q0 -89 1 -261t1 -242q0 -205 -61 -320q-53 -102 -146.5 -159.5 t-199.5 -57.5q-96 0 -151.5 38.5t-55.5 102.5zM145 1321q0 66 39 103.5t107 37.5q65 0 102 -38t37 -101q0 -67 -39 -104t-104 -37q-63 0 -102.5 37t-39.5 102z" />
<glyph unicode="k" horiz-adv-x="1187" d="M41 1350v137q255 0 389 39l19 -25q-15 -114 -15 -864q0 -43 4 -53q16 -21 41 -21q30 0 59 15t70 55q137 128 137 180q0 37 -55 37q-29 0 -72 -4v137q91 -8 271 -8q87 0 239 8v-137q-20 2 -57 2q-82 0 -162 -92q-111 -119 -196 -201q186 -248 297 -354q39 -39 69.5 -54.5 t69.5 -15.5q25 0 39 2v-137q-56 6 -129 6q-18 0 -48.5 -1t-71.5 -2.5t-65 -2.5q-57 50 -251 309q-73 101 -104 129.5t-56 28.5q-31 0 -31 -41q0 -96 4 -139q6 -103 13 -120q2 -4 4 -7q16 -25 77 -25q33 0 56 2v-137q-236 8 -275 8q-49 0 -148 -4t-116 -4v137q18 -2 51 -2 q79 0 92 29q12 21 15 123q2 135 2 458q0 347 -4 478q-1 47 -7 74.5t-21.5 40t-31.5 15.5t-47 3q-35 0 -55 -2z" />
<glyph unicode="l" horiz-adv-x="632" d="M41 1350v137q251 0 385 39l23 -27q-15 -288 -17 -674q0 -337 4 -542q3 -106 17 -127q16 -25 73 -25q37 0 60 2v-137q-220 8 -260 8q-51 0 -158.5 -4t-118.5 -4v137q23 -2 53 -2q68 0 86 27q17 22 17 125q0 63 1 176t1 141q0 413 -4 631q-1 42 -8 67t-22.5 36.5 t-31.5 14.5t-47 3q-33 0 -53 -2z" />
<glyph unicode="m" horiz-adv-x="1873" d="M57 -4v137q27 -2 52 -2q73 0 92 29q2 3 3.5 7t3 9.5t2 10t1.5 13t1.5 14t1 15.5t0.5 16.5t0.5 18.5t0.5 19q2 94 2 231q0 227 -12 274q-12 48 -101 48q-29 0 -47 -2v137q252 0 375 35l23 -25q-8 -73 -11 -147q204 174 357 174q91 0 149.5 -43t85.5 -140q90 83 193.5 133 t187.5 50q188 0 240 -181q24 -83 24 -313v-231q0 -107 11 -127q19 -25 82 -25q32 0 57 2v-137q-228 8 -260 8q-50 0 -150.5 -4t-105.5 -4v137q20 -2 41 -2q61 0 78 31q15 26 19.5 72t4.5 151q0 177 -8.5 260t-34.5 119q-41 53 -115 53q-52 0 -105 -24t-91 -68 q-43 -52 -43 -211v-231q0 -102 14 -127q16 -25 76 -25q28 0 53 2v-137q-228 8 -252 8q-49 0 -144 -3.5t-116 -4.5v137q20 -2 47 -2q59 0 76 31q14 25 18.5 72.5t4.5 150.5q0 179 -7.5 257t-35.5 118q-41 57 -113 57q-50 0 -106.5 -24t-92.5 -74q-41 -53 -41 -207 q0 -145 2 -229q3 -105 15 -127q16 -25 71 -25q27 0 52 2v-137q-236 8 -256 8q-51 0 -152.5 -4t-116.5 -4z" />
<glyph unicode="n" horiz-adv-x="1269" d="M57 -4v137q27 -2 52 -2q73 0 92 29q14 23 14 123q2 92 2 235q0 223 -12 270q-12 48 -101 48q-29 0 -47 -2v137q249 0 375 35l23 -25q-1 -20 -5.5 -68t-5.5 -79q205 174 367 174q193 0 244 -179q11 -37 16 -92.5t5.5 -93.5t0.5 -129v-231q0 -105 15 -127q16 -25 79 -25 q33 0 60 2v-137q-236 8 -262 8q-49 0 -148 -4t-116 -4v137q20 -2 51 -2q54 0 75 31q25 51 25 219q0 178 -10 264.5t-39 122.5q-38 49 -121 49q-51 0 -108 -25.5t-93 -72.5q-43 -52 -43 -207q0 -145 2 -229q3 -105 15 -127q16 -25 71 -25q31 0 56 2v-137q-236 8 -252 8 q-51 0 -158.5 -4t-118.5 -4z" />
<glyph unicode="o" horiz-adv-x="1150" d="M76 461q0 241 147 395t387 154q209 0 336 -134.5t127 -349.5q0 -250 -140.5 -402.5t-383.5 -152.5q-214 0 -343.5 140t-129.5 350zM317 524q0 -201 71.5 -304t199.5 -103q118 0 185 85t67 257q0 77 -12.5 143.5t-40.5 127.5t-81.5 96.5t-127.5 35.5q-125 0 -193 -92 t-68 -246z" />
<glyph unicode="p" horiz-adv-x="1230" d="M37 -358q25 -2 49 -2q74 0 90 28q14 20 17 117q4 129 4 545q0 324 -4 387q-3 78 -21 96q-23 23 -84 23q-31 0 -49 -2v137q255 0 377 35l20 -25q-11 -138 -12 -150q75 79 178.5 131t200.5 52q165 0 258.5 -121.5t93.5 -347.5q0 -131 -38 -238.5t-104.5 -178.5 t-157.5 -109.5t-196 -38.5q-79 0 -132 13t-105 42q0 -140 2 -246q3 -95 20 -121q18 -28 93 -28q34 0 67 2v-138q-22 1 -79.5 3.5t-111 4t-91.5 1.5q-44 0 -148 -4.5t-137 -4.5v138zM418 426q0 -103 22 -182q18 -58 77.5 -91.5t131.5 -33.5q128 0 195 88t67 262 q0 181 -54.5 271.5t-170.5 90.5q-72 0 -137.5 -39t-93.5 -96q-22 -43 -29.5 -104t-7.5 -166z" />
<glyph unicode="q" horiz-adv-x="1212" d="M76 430q0 272 142 428t378 156q176 0 307 -68l60 107l100 -25q-21 -189 -21 -745q0 -326 2 -496q3 -94 17 -121q13 -26 74 -26q28 0 51 2v-138q-16 1 -63 3.5t-96.5 4t-98.5 1.5q-48 0 -157 -4t-140 -5v138q33 -2 78 -2q67 3 84 26q17 22 20 119q4 254 4 365 q-89 -99 -170 -137t-184 -38q-79 0 -147.5 28t-122.5 82.5t-85.5 143t-31.5 201.5zM322 463q0 -156 64 -237t167 -81q62 0 121.5 30.5t95.5 82.5q28 41 36.5 97t8.5 177q0 183 -31 238q-55 90 -186 90q-119 0 -197.5 -98t-78.5 -299z" />
<glyph unicode="r" horiz-adv-x="888" d="M57 -4v137q25 -2 52 -2q76 0 92 31q14 21 14 110q0 43 1 130t1 116q0 210 -12 266q-12 52 -99 52q-24 0 -49 -2v137q256 0 375 35l23 -23q-10 -127 -11 -162q67 91 144 139t147 48q61 0 98 -30.5t37 -84.5q0 -61 -31.5 -95t-80.5 -34q-41 0 -86 31q-18 14 -54 14 q-31 0 -73.5 -31t-69.5 -84q-33 -62 -33 -202q0 -148 2 -211q3 -104 17 -125q15 -27 88 -27q53 0 86 2v-135q-128 8 -311 8q-3 0 -267 -8z" />
<glyph unicode="s" horiz-adv-x="923" d="M53 190q0 56 34.5 88.5t80.5 32.5q52 0 76.5 -22.5t34.5 -65.5q27 -117 167 -117q87 0 128.5 31.5t41.5 79.5t-26 77.5t-92 59.5l-166 74q-118 53 -168.5 113t-50.5 161q0 60 25 113t74 97t132.5 70t190.5 26q142 0 217 -52t75 -131q0 -54 -30.5 -80t-77.5 -26 q-81 0 -105 84q-10 33 -47.5 49t-83.5 16q-67 0 -106 -30t-39 -76q0 -41 27 -70.5t106 -62.5l143 -62q136 -61 188 -126.5t52 -161.5q0 -138 -108 -224t-318 -86q-169 0 -272 62t-103 159z" />
<glyph unicode="t" horiz-adv-x="684" d="M43 825v136q109 9 154 51q53 50 94 229h129q0 -49 -2.5 -130.5t-3.5 -135.5q156 0 233 6v-152q-57 2 -235 2q-2 -209 -2 -376q0 -119 6 -199q5 -62 30 -90.5t74 -28.5q52 0 123 23l29 -127q-111 -51 -266 -51q-149 0 -197 102q-29 65 -29 203q0 74 6 542q-100 0 -143 -4z " />
<glyph unicode="u" horiz-adv-x="1261" d="M29 834v137q105 0 222 10.5t163 24.5l20 -25q-31 -238 -31 -528q0 -166 33 -226q20 -35 62.5 -52t85.5 -17q65 0 127 28t92 80q35 64 35 217q0 148 -2 207q-3 93 -17 117q-18 29 -80 29q-28 0 -57 -2v137q105 0 221 10.5t162 24.5l20 -25q-26 -200 -26 -539 q0 -203 14 -258q13 -47 72 -47q28 0 74 4v-137q-219 0 -369 -27l-23 21q5 40 11 141q-75 -86 -163.5 -127t-172.5 -41q-46 0 -83.5 5t-76.5 18.5t-67.5 39t-51.5 63.5t-35 95.5t-12 131.5q0 20 3 161t3 205q0 90 -16 117q-17 29 -76 29q-28 0 -61 -2z" />
<glyph unicode="v" horiz-adv-x="1134" d="M0 846v135q90 -6 281 -6q190 0 264 6v-135q-23 2 -74 2q-78 0 -78 -51q0 -24 13.5 -63t50.5 -128q80 -191 151 -370q17 40 79 187.5t83 201.5q49 134 49 174q0 49 -80 49q-36 0 -63 -2v135q94 -6 239 -6q154 0 220 6v-135q-14 2 -43 2q-35 0 -60 -23.5t-57 -95.5 q-34 -75 -114 -252t-126.5 -284t-83.5 -201h-186q-91 248 -305 735q-34 78 -59 99.5t-64 21.5q-21 0 -37 -2z" />
<glyph unicode="w" horiz-adv-x="1589" d="M0 846v135q80 -6 279 -6q182 0 258 6v-135q-18 2 -48 2q-61 0 -85.5 -13.5t-24.5 -46.5q0 -21 31 -133q20 -69 114 -370q164 485 221 692h179q20 -74 47.5 -162.5t49 -153.5t62 -184t64.5 -190q15 52 35 121t41.5 142.5t29.5 100.5q27 103 27 137q0 31 -21.5 45.5 t-72.5 14.5q-33 0 -56 -2v135q91 -8 222 -8q149 0 237 8v-135q-16 2 -37 2q-44 0 -68 -32.5t-65 -149.5q-102 -290 -227 -674h-180q-73 229 -217 643q-37 -109 -111.5 -317.5t-114.5 -325.5h-182q-80 258 -235 719q-29 84 -51.5 110.5t-63.5 26.5q-19 0 -37 -2z" />
<glyph unicode="x" horiz-adv-x="1202" d="M16 -4v137q14 -2 37 -2q49 0 86.5 24.5t108.5 102.5l201 225l-222 252q-61 69 -90 91t-59 22q-29 0 -43 -2v135q136 -8 295 -8q130 0 274 8v-135q-14 2 -47 2q-61 0 -61 -41q0 -24 63 -98l88 -99l84 99q60 73 60 102q0 37 -62 37q-29 0 -43 -2v135q126 -8 207 -8 q126 0 244 8v-135q-12 2 -39 2q-34 0 -72.5 -26t-107.5 -101l-185 -201l244 -270q64 -71 96 -95t72 -24q27 0 39 2v-135q-140 4 -293 4q-81 0 -291 -6v135q20 -2 49 -2q32 0 49 11.5t17 29.5q0 6 -1 11.5t-4 11.5t-5.5 10.5t-9.5 13t-11.5 13.5t-15.5 18t-19 22l-108 121 l-113 -133q-47 -56 -47 -90q0 -37 57 -37q42 0 62 2v-137q-159 6 -273 6q-34 0 -211 -6z" />
<glyph unicode="y" horiz-adv-x="1130" d="M0 846v135q120 -8 272 -8q174 0 273 8v-135q-23 2 -76 2q-70 0 -70 -53q0 -24 15 -62.5t57 -128.5q106 -235 156 -350q82 202 137 350q55 145 55 193q0 51 -80 51q-38 0 -65 -2v135q125 -8 241 -8q127 0 215 8v-135q-14 2 -40 2q-38 0 -64 -30t-72 -134 q-42 -98 -125.5 -296t-144.5 -337.5t-131 -288.5q-29 -62 -59.5 -109t-72.5 -89.5t-96.5 -65t-119.5 -22.5q-76 0 -112 32.5t-36 79.5q0 52 27.5 82.5t77.5 30.5q17 0 48 -11.5t50 -11.5q71 0 121 76q49 72 121 236q-40 91 -158 346t-182 395q-18 40 -33.5 65t-31.5 35.5 t-28 13.5t-30 3q-25 0 -39 -2z" />
<glyph unicode="z" horiz-adv-x="1026" d="M35 41q442 603 583 811q-196 0 -269 -10.5t-105 -40.5q-45 -39 -80 -160l-98 14q13 49 33.5 156t29.5 176q190 -6 393 -6q275 0 410 6l18 -49q-110 -155 -295 -414t-278 -389q66 -4 168 -4q147 0 229 35q45 20 73 58t52 120l96 -18q-49 -187 -77 -328q-172 4 -465 4 q-59 0 -154.5 -1t-168 -2t-75.5 -1z" />
<glyph unicode="{" horiz-adv-x="671" d="M27 508v113q64 3 99.5 14.5t56.5 44t26.5 78t5.5 129.5v248q0 82 19.5 142.5t66.5 109.5t134 74.5t212 25.5v-117q-60 0 -97 -8.5t-67 -34.5t-42.5 -77.5t-12.5 -133.5v-248q0 -139 -44.5 -207.5t-158.5 -95.5q112 -24 158.5 -86t46.5 -200v-275q0 -100 22 -152t66 -70 t129 -18v-120q-236 0 -332 74.5t-96 254.5v291q0 136 -38 188.5t-154 55.5z" />
<glyph unicode="|" horiz-adv-x="520" d="M166 -385v1876h186v-1876h-186z" />
<glyph unicode="}" horiz-adv-x="671" d="M25 -238q60 0 97 8.5t67 34.5t42.5 77.5t12.5 133.5v248q0 139 44 207.5t158 95.5q-111 24 -157.5 86.5t-46.5 200.5v274q0 101 -21.5 152.5t-65.5 69.5t-130 18v119q236 0 332 -74.5t96 -253.5v-291q0 -136 38 -188t154 -55v-113q-64 -3 -99.5 -14.5t-56.5 -44 t-26.5 -78t-5.5 -129.5v-248q0 -82 -19.5 -142.5t-66.5 -110.5t-134 -75.5t-212 -25.5v118z" />
<glyph unicode="~" horiz-adv-x="1220" d="M106 512q140 184 300 184q51 0 96 -16t149 -74q103 -57 162 -57q49 0 94.5 31t102.5 108l104 -117q-138 -184 -297 -184q-84 0 -201 64q-94 51 -131 66t-73 15q-57 0 -103.5 -32t-95.5 -107z" />
<glyph unicode="&#xa1;" horiz-adv-x="659" d="M135 -287q0 59 37 359t49 454h137q9 -166 44.5 -462t35.5 -347q0 -76 -37.5 -117.5t-113.5 -41.5q-152 0 -152 155zM137 831q0 69 40.5 109.5t107.5 40.5q65 0 107 -40t42 -114q0 -66 -44 -106.5t-109 -40.5q-64 0 -104 41t-40 110z" />
<glyph unicode="&#xa2;" horiz-adv-x="1009" d="M119 449q0 210 104.5 355t286.5 185v180h108v-165q152 0 232 -55t80 -140q0 -62 -34 -89.5t-79 -27.5q-87 0 -106 78q-10 47 -32.5 66t-60.5 22v-708q133 5 261 143l96 -80q-153 -200 -357 -225v-187h-108v181q-186 9 -288.5 135t-102.5 332zM328 506q0 -286 182 -344 v680q-78 -32 -130 -118.5t-52 -217.5z" />
<glyph unicode="&#xa3;" horiz-adv-x="1224" d="M49 -2l10 141q102 25 181 90q106 88 106 301h-209v146h209q0 34 -1 95t-1 97q0 214 133.5 335.5t356.5 121.5q88 0 152 -20t97.5 -53.5t48.5 -68.5t15 -73q0 -64 -37.5 -92.5t-91.5 -28.5q-46 0 -74 22t-33 60q-7 63 -37 89t-86 26q-198 0 -206 -275q-4 -110 -4 -235h309 v-146h-314q-13 -114 -58 -197.5t-150 -150.5h233q152 0 225 6t107 23t53.5 54t32.5 126l131 -8q-22 -135 -51 -387q-294 6 -547 6q-394 0 -500 -4z" />
<glyph unicode="&#xa4;" horiz-adv-x="1185" d="M92 231l133 134q-80 109 -80 256q0 146 80 258l-131 133l119 123l129 -134q106 78 252 78q140 0 252 -78l127 134l119 -123l-129 -133q77 -95 77 -258q0 -150 -77 -254l131 -136l-119 -122l-129 133q-108 -78 -252 -78q-150 0 -252 76l-129 -134zM319 625 q0 -129 76.5 -212t198.5 -83q118 0 195 83.5t77 207.5q0 125 -77 207.5t-195 82.5q-119 0 -197 -82t-78 -204z" />
<glyph unicode="&#xa5;" horiz-adv-x="1363" d="M37 1141v139q76 -6 280 -6q234 0 310 6v-139l-21 1q-21 1 -37 1q-50 0 -71.5 -9.5t-22.5 -37.5q0 -35 55 -119q48 -73 189 -277q23 38 89.5 138t94.5 147q41 73 41 105q0 26 -19 39t-77 14q-17 0 -31 -1l-14 -1v139q76 -6 268 -6q180 0 256 6v-139q-10 2 -31 2 q-34 0 -61.5 -13t-44.5 -30t-45 -53q-45 -55 -205 -289h211v-129h-297l-68 -103v-34h359v-130h-359q0 -56 2 -83q3 -99 13 -117q16 -29 94 -29q43 0 68 2v-139q-25 1 -85 3t-113.5 3.5t-90.5 1.5q-177 0 -287 -8v139q35 -2 76 -2q62 0 80 25q13 22 16 121q0 13 1 40t1 43 h-358v130h358v30l-67 107h-291v129h205l-201 293q-34 51 -64 71.5t-73 20.5q-23 0 -33 -2z" />
<glyph unicode="&#xa6;" horiz-adv-x="520" d="M166 -385v799h186v-799h-186zM166 694v797h186v-797h-186z" />
<glyph unicode="&#xa7;" horiz-adv-x="1056" d="M61 621q0 196 234 311q-94 94 -94 227q0 140 118.5 232t296.5 92q141 0 224.5 -53.5t83.5 -147.5q0 -53 -32 -89t-87 -36q-59 0 -86 30t-31 70q-3 47 -27.5 68t-74.5 21q-75 0 -122.5 -40.5t-47.5 -111.5q0 -61 42 -113.5t191 -171.5q99 -79 163 -142.5t94.5 -114.5 t41 -88t10.5 -81q0 -197 -229 -319q80 -80 105.5 -141.5t25.5 -126.5q0 -130 -115.5 -226t-302.5 -96q-153 0 -245.5 57.5t-92.5 151.5q0 50 33 85.5t92 35.5q49 0 75.5 -26t45.5 -91q19 -74 121 -74q77 0 121.5 38.5t44.5 103.5t-55.5 133t-225.5 217 q-168 146 -231.5 235.5t-63.5 180.5zM266 688q0 -68 43 -127t174 -184q81 -72 111 -92q22 -13 37 -13q19 0 41 13q78 57 78 147q0 55 -47.5 123.5t-190.5 189.5q-5 4 -42 35.5t-56 46.5q-12 9 -27 9q-21 0 -41 -17q-34 -21 -57 -57t-23 -74z" />
<glyph unicode="&#xa8;" horiz-adv-x="567" d="M-6 1274q0 48 30 79t80 31q49 0 79 -31t30 -79t-31 -79.5t-80 -31.5q-47 0 -77.5 31t-30.5 80zM356 1274q0 48 30.5 79t80.5 31q49 0 78.5 -31t29.5 -79t-31 -79.5t-81 -31.5q-46 0 -76.5 31t-30.5 80z" />
<glyph unicode="&#xa9;" horiz-adv-x="1738" d="M111 721q0 210 98.5 383t271.5 272t385 99q161 0 302.5 -58t242.5 -158t159 -240t58 -298q0 -210 -98.5 -382t-272.5 -270t-389 -98q-160 0 -301 58t-241 157.5t-157.5 238.5t-57.5 296zM213 723q0 -186 83.5 -337t234 -238t337.5 -87q188 0 338.5 86.5t235 238 t84.5 337.5q0 185 -85 337t-236.5 239t-338.5 87q-185 0 -335 -87.5t-234 -239t-84 -336.5zM432 705q0 119 37 213t100.5 152t143 88t168.5 30q52 0 114 -17q50 -12 62 -12q28 0 28 25l84 4q17 -209 29 -297l-94 -10q-24 103 -71 150.5t-154 47.5q-50 0 -95 -19t-83.5 -57.5 t-61.5 -105t-23 -152.5q0 -88 24.5 -155t66 -105.5t90 -57.5t102.5 -19q147 0 262 118l76 -80q-161 -176 -389 -176q-185 0 -300.5 120t-115.5 315z" />
<glyph unicode="&#xaa;" horiz-adv-x="864" d="M66 825q0 77 37 119.5t102 65.5q34 12 73 20.5t104.5 18.5t90.5 14q40 8 52 19t12 42q0 84 -31.5 116t-99.5 32q-52 0 -76 -27q-17 -17 -23 -59q-4 -28 -28.5 -42t-57.5 -14q-88 0 -88 84q0 74 87 125.5t239 51.5q129 0 194.5 -48t65.5 -165q0 -31 -5 -140.5t-5 -175.5 q0 -78 15.5 -101.5t47.5 -23.5q25 0 53 8l19 -104q-31 -12 -80.5 -21.5t-85.5 -9.5q-66 0 -102.5 22.5t-47.5 84.5q-106 -109 -233 -109q-102 0 -165.5 63.5t-63.5 153.5zM258 838q0 -39 27 -64.5t73 -25.5q77 0 123 38q49 38 49 136q0 34 -30 34q-63 0 -164 -30 q-78 -25 -78 -88z" />
<glyph unicode="&#xab;" horiz-adv-x="960" d="M63 477v55q287 233 406 347l57 -48q-93 -128 -258 -323q239 -307 262 -338l-63 -55q-230 217 -404 362zM428 477v55q287 233 406 347l57 -48q-93 -128 -258 -323q27 -35 84 -106.5t99.5 -126.5t78.5 -105l-64 -55q-238 224 -403 362z" />
<glyph unicode="&#xac;" horiz-adv-x="1251" d="M137 498v155h928v-540h-160v385h-768z" />
<glyph unicode="&#xad;" horiz-adv-x="659" d="M92 440v178q47 -4 246 -4q153 0 229 4v-178q-59 2 -227 2q-170 0 -248 -2z" />
<glyph unicode="&#xae;" horiz-adv-x="1738" d="M111 721q0 210 98.5 383t271.5 272t385 99q161 0 302.5 -58t242.5 -158t159 -240t58 -298q0 -210 -98.5 -382t-272.5 -270t-389 -98q-160 0 -301 58t-241 157.5t-157.5 238.5t-57.5 296zM213 723q0 -186 83.5 -337t234 -238t337.5 -87q188 0 338.5 86.5t235 238 t84.5 337.5q0 185 -85 337t-236.5 239t-338.5 87q-185 0 -335 -87.5t-234 -239t-84 -336.5zM477 291v96l18 -1q18 -1 23 -1q44 0 55 21q9 15 9 77q2 104 2 275q0 61 -1 144.5t-1 92.5q0 60 -11 74q-12 18 -51 18q-18 0 -41 -2v97q24 0 94 -2t97 -2q25 0 93 1t103 1 q180 0 266.5 -56t86.5 -174q0 -127 -111 -196q-11 -6 -32.5 -19t-28.5 -16q-19 -7 -19 -25q0 -13 16 -37q78 -130 148 -219q41 -53 115 -53h14v-94q-46 4 -113 4q-94 0 -133 -4q-80 114 -207 346q-10 19 -19 24t-28 7q-12 2 -43 2q-14 0 -20 -4q-8 -5 -8 -37q0 -84 2 -137 q3 -77 10 -91q10 -16 49 -16q6 0 29 1t24 1v-96q-105 6 -176 6q-64 0 -211 -6zM750 811q0 -23 18 -27q20 -4 55 -4q45 0 76.5 5t64 20t49.5 48.5t17 84.5q0 139 -188 139q-29 0 -41.5 -0.5t-24 -4.5t-16.5 -13q-8 -12 -8 -51q-2 -70 -2 -197z" />
<glyph unicode="&#xaf;" horiz-adv-x="567" d="M16 1159v141h535v-141h-535z" />
<glyph unicode="&#xb0;" horiz-adv-x="630" d="M43 1196q0 120 80 194t199 74t192.5 -71.5t73.5 -194.5q0 -121 -78 -195.5t-197 -74.5q-118 0 -194 73t-76 195zM154 1192q0 -79 47.5 -125.5t117.5 -46.5q71 0 116.5 48.5t45.5 127.5q0 82 -46.5 130t-117.5 48q-67 0 -115 -50t-48 -132z" />
<glyph unicode="&#xb1;" horiz-adv-x="1251" d="M162 92v156h928v-156h-928zM162 750v153h385v373h160v-373h383v-153h-383v-373h-160v373h-385z" />
<glyph unicode="&#xb2;" horiz-adv-x="784" d="M29 1036q179 130 280 222.5t137.5 155t36.5 124.5q0 63 -32 94t-89 31q-59 0 -81 -25t-31 -75q-9 -60 -86 -60q-36 0 -58 22t-22 64q0 31 16.5 61.5t49.5 57.5t91.5 44t133.5 17q144 0 219.5 -61.5t75.5 -165.5q0 -36 -8 -67t-34.5 -75t-72.5 -90t-127.5 -107.5 t-194.5 -131.5q41 -2 140 -2q95 0 132 5.5t58 21.5q33 22 51 108l93 -8q-9 -55 -25 -256q-180 4 -322 4q-200 0 -319 -4z" />
<glyph unicode="&#xb3;" horiz-adv-x="784" d="M57 1087q0 46 24 68.5t60 22.5q65 0 82 -66q11 -43 40 -62.5t87 -19.5q75 0 117.5 33.5t42.5 103.5q0 78 -49.5 110t-151.5 32q-37 0 -57 -2v114q14 -2 51 -2q89 0 129.5 33t40.5 107q0 44 -28 74t-87 30q-83 0 -96 -68q-6 -35 -25.5 -50t-58.5 -15q-32 0 -54 19.5 t-22 54.5q0 65 66 115t199 50q142 0 213 -51.5t71 -140.5q0 -154 -190 -201q233 -21 233 -202q0 -114 -97 -184t-253 -70q-82 0 -142 17t-89.5 44t-42.5 53.5t-13 52.5z" />
<glyph unicode="&#xb4;" horiz-adv-x="573" d="M92 1130q145 255 207 381l182 -84q-144 -160 -321 -337z" />
<glyph unicode="&#xb5;" horiz-adv-x="1261" d="M29 834v137q105 0 222 10.5t163 24.5l22 -25q-30 -205 -30 -528q0 -167 30 -226q20 -35 62.5 -52t85.5 -17q65 0 127 28t92 80q35 64 35 217q0 148 -2 207q-3 93 -17 117q-18 29 -80 29q-28 0 -57 -2v137q105 0 221 10.5t162 24.5l20 -25q-26 -186 -26 -481 q0 -149 6 -254q3 -60 20.5 -84.5t55.5 -24.5q31 0 78 15l28 -129q-42 -19 -103.5 -31t-109.5 -12q-91 0 -137.5 35.5t-58.5 123.5q-75 -87 -147 -123t-154 -36q-84 0 -131 36q4 -238 18 -444h-242v1118q0 90 -16 117q-17 29 -76 29q-28 0 -61 -2z" />
<glyph unicode="&#xb6;" horiz-adv-x="1228" d="M117 850q0 96 21 173t56.5 131.5t91 95.5t117 66t141.5 40t157.5 20.5t172.5 5.5q89 0 250 7v-142q-101 0 -129 -26.5t-28 -130.5q0 -22 4 -510q0 -28 3 -149t3 -214q0 -102 -15.5 -208t-43.5 -177q-51 -131 -159.5 -210t-252.5 -79q-128 0 -191 49.5t-63 110.5 q0 51 29.5 82t83.5 31q58 0 86 -49q23 -40 47.5 -57t66.5 -17q53 0 100 40t66 101q27 85 34 203t7 334q-46 -19 -145 -19q-235 0 -372.5 122t-137.5 376zM510 852q0 -111 13 -183.5t40 -109.5t60.5 -51t83.5 -14q52 0 59 32q6 30 6 88q0 356 -10 525q-6 94 -74 94 q-85 0 -125 -72q-28 -52 -40.5 -121.5t-12.5 -187.5z" />
<glyph unicode="&#xb7;" horiz-adv-x="505" d="M104 522q0 66 44.5 107t107.5 41q65 0 105 -41t40 -111q0 -68 -40.5 -108.5t-106.5 -40.5t-108 39.5t-42 113.5z" />
<glyph unicode="&#xb8;" horiz-adv-x="567" d="M88 -426q49 0 86 4.5t69.5 16.5t50 35.5t17.5 58.5q0 39 -34 62.5t-97 23.5l-18 39q32 68 84 190h104q-3 -6 -49 -125q86 -6 132 -46.5t46 -111.5q0 -69 -37 -119.5t-98 -77t-125 -38.5t-131 -12v100z" />
<glyph unicode="&#xb9;" horiz-adv-x="784" d="M168 1698q66 10 165 35t146 43l33 -21q-12 -89 -12 -358q0 -196 2 -264q3 -57 12 -76q14 -19 64 -19q45 0 63 2v-100q-13 0 -95 2t-132 2q-46 0 -127 -2t-105 -2v100q18 -2 54 -2q60 0 77 21q14 17 17 74q2 82 2 204q0 33 -1 98t-1 89q0 67 -19 80q-13 8 -37 8 q-27 0 -90 -13z" />
<glyph unicode="&#xba;" horiz-adv-x="864" d="M45 977q0 181 113 297.5t297 116.5q160 0 258 -101.5t98 -265.5q0 -188 -108.5 -303t-294.5 -115q-165 0 -264 105t-99 266zM242 1022q0 -152 51 -230.5t143 -78.5q85 0 131.5 66t46.5 194q0 59 -8 109.5t-27.5 98t-58 74.5t-92.5 27q-89 0 -137.5 -71.5t-48.5 -188.5z " />
<glyph unicode="&#xbb;" horiz-adv-x="960" d="M68 823l63 56q202 -193 401 -363v-55q-282 -232 -403 -346l-57 47q93 128 258 323q-202 255 -262 338zM432 823l64 56q217 -207 403 -363v-55q-271 -219 -405 -346l-58 47q93 128 258 323q-202 255 -262 338z" />
<glyph unicode="&#xbc;" horiz-adv-x="1730" d="M156 1239q68 11 166.5 35t144.5 41l33 -19q-13 -96 -13 -358q0 -196 2 -266q3 -57 13 -74q14 -20 63 -20q46 0 64 2v-99q-13 0 -95.5 2t-132.5 2q-46 0 -126.5 -2t-104.5 -2v99q18 -2 53 -2q60 0 78 22q13 16 16 72q2 82 2 207q0 33 -1 97.5t-1 88.5q0 68 -18 80 q-13 8 -37 8q-32 0 -90 -12zM506 0l577 1288h127l-575 -1288h-129zM899 289q100 125 410 528h149q-2 -76 -2 -213v-268q42 0 152 4l-13 -121q-55 2 -139 2v-41q0 -50 14 -67q16 -19 68 -19q32 0 55 2v-98q-18 0 -105.5 2t-119.5 2q-29 0 -110 -2t-107 -2v100q18 -2 49 -2 q57 0 76 19q14 17 14 67v39q-250 0 -377 -2zM1071 336h221v297q-75 -111 -221 -297z" />
<glyph unicode="&#xbd;" horiz-adv-x="1730" d="M133 1239q68 11 166.5 35t144.5 41l33 -19q-12 -89 -12 -358q0 -196 2 -266q3 -58 12 -74q14 -20 64 -20q45 0 63 2v-99q-13 0 -95 2t-132 2q-46 0 -127 -2t-105 -2v99q18 -2 54 -2q60 0 78 22q13 16 16 72q2 82 2 207q0 33 -1 97.5t-1 88.5q0 67 -19 80q-13 8 -36 8 q-32 0 -90 -12zM492 0l577 1288h127l-575 -1288h-129zM971 94q179 130 280 222.5t137.5 155t36.5 124.5q0 63 -31.5 94t-88.5 31q-59 0 -81.5 -25.5t-31.5 -74.5q-9 -60 -86 -60q-36 0 -58 22t-22 64q0 31 16.5 61.5t49.5 57.5t91.5 44t133.5 17q144 0 219.5 -61.5 t75.5 -165.5q0 -36 -7.5 -67t-34 -75t-72.5 -90t-127.5 -107.5t-194.5 -131.5q41 -2 139 -2q95 0 132 5.5t58 21.5q33 22 51 108l93 -8q-9 -55 -25 -256q-180 4 -321 4q-201 0 -320 -4z" />
<glyph unicode="&#xbe;" horiz-adv-x="1730" d="M102 629q0 46 24 68t60 22q65 0 82 -66q11 -43 40 -63.5t87 -20.5q74 0 117 34.5t43 103.5q0 79 -49.5 111t-151.5 32q-8 0 -27 -1t-30 -1v113q21 -3 51 -3q88 0 129 33.5t41 106.5q0 45 -28 74.5t-87 29.5q-84 0 -96 -67q-12 -66 -84 -66q-33 0 -54.5 19.5t-21.5 56.5 q0 65 66 115.5t199 50.5q141 0 212.5 -52.5t71.5 -140.5q0 -84 -50 -131.5t-140 -71.5q233 -21 233 -202q0 -112 -97.5 -182t-252.5 -70q-82 0 -142 17t-89.5 44.5t-42.5 54t-13 52.5zM563 0l578 1288h127l-576 -1288h-129zM946 289q100 125 410 528h149q-2 -76 -2 -213 v-268q42 0 152 4l-13 -121q-55 2 -139 2v-41q0 -49 15 -67q16 -19 67 -19q32 0 55 2v-98q-18 0 -105.5 2t-119.5 2q-29 0 -110 -2t-107 -2v100q18 -2 49 -2q57 0 76 19q14 17 14 67v39q-249 0 -376 -2zM1118 336h221v297q-75 -111 -221 -297z" />
<glyph unicode="&#xbf;" horiz-adv-x="985" d="M53 -154q0 120 56.5 202t214.5 171q92 49 135 91.5t43 109.5q0 41 -19 92l131 39q41 -87 41 -168q0 -90 -38 -149t-160 -144q-78 -57 -110 -108t-32 -125q0 -158 170 -158q75 0 112.5 40t43.5 120q4 50 38 73t85 23q49 0 82 -30t33 -95q0 -46 -24.5 -92.5t-72 -89.5 t-131 -70t-188.5 -27q-199 0 -304.5 82t-105.5 213zM399 829q0 69 40.5 109.5t107.5 40.5q65 0 107 -39.5t42 -114.5q0 -66 -44 -106.5t-107 -40.5q-65 0 -105.5 40.5t-40.5 110.5z" />
<glyph unicode="&#xc0;" horiz-adv-x="1445" d="M4 -4v139q5 0 16 -1t17 -1q66 0 99.5 38t76.5 138q402 938 455 1084h184q77 -242 430 -1151q24 -62 52 -85.5t73 -23.5q5 0 18 1t19 1v-137q-80 6 -293 6q-186 0 -293 -8v139q23 -2 72 -2q50 0 68 12t18 45q0 42 -76 250q-12 29 -29 31q-21 6 -231 6q-136 0 -191 -2 q-33 0 -49 -37q-84 -209 -84 -250q0 -32 19 -43.5t67 -11.5q53 0 76 2v-139q-107 8 -244 8q-131 0 -270 -8zM449 1729l153 126q97 -112 318 -337l-56 -60q-285 178 -415 271zM524 647q0 -14 13 -18q12 -4 147 -4q113 0 150 2q26 3 26 24q0 12 -6 27q-30 85 -80 225.5 t-69 194.5q-3 -7 -72 -172.5t-101 -247.5q-8 -24 -8 -31z" />
<glyph unicode="&#xc1;" horiz-adv-x="1445" d="M4 -4v139q5 0 16 -1t17 -1q66 0 99.5 38t76.5 138q402 938 455 1084h184q77 -242 430 -1151q24 -62 52 -85.5t73 -23.5q5 0 18 1t19 1v-137q-80 6 -293 6q-186 0 -293 -8v139q23 -2 72 -2q50 0 68 12t18 45q0 42 -76 250q-12 29 -29 31q-21 6 -231 6q-136 0 -191 -2 q-33 0 -49 -37q-84 -209 -84 -250q0 -32 19 -43.5t67 -11.5q53 0 76 2v-139q-107 8 -244 8q-131 0 -270 -8zM524 647q0 -14 13 -18q12 -4 147 -4q113 0 150 2q26 3 26 24q0 12 -6 27q-30 85 -80 225.5t-69 194.5q-3 -7 -72 -172.5t-101 -247.5q-8 -24 -8 -31zM573 1518 q221 225 318 337l153 -126q-130 -93 -415 -271z" />
<glyph unicode="&#xc2;" horiz-adv-x="1445" d="M4 -4v139q5 0 16 -1t17 -1q66 0 99.5 38t76.5 138q402 938 455 1084h184q77 -242 430 -1151q24 -62 52 -85.5t73 -23.5q5 0 18 1t19 1v-137q-80 6 -293 6q-186 0 -293 -8v139q23 -2 72 -2q50 0 68 12t18 45q0 42 -76 250q-12 29 -29 31q-21 6 -231 6q-136 0 -191 -2 q-33 0 -49 -37q-84 -209 -84 -250q0 -32 19 -43.5t67 -11.5q53 0 76 2v-139q-107 8 -244 8q-131 0 -270 -8zM416 1505q114 117 262 285h158q165 -195 247 -283l-63 -61q-32 24 -272 194q-23 -17 -82 -57t-109.5 -76t-83.5 -61zM524 647q0 -14 13 -18q12 -4 147 -4 q113 0 150 2q26 3 26 24q0 12 -6 27q-30 85 -80 225.5t-69 194.5q-3 -7 -72 -172.5t-101 -247.5q-8 -24 -8 -31z" />
<glyph unicode="&#xc3;" horiz-adv-x="1445" d="M4 -4v139q5 0 16 -1t17 -1q66 0 99.5 38t76.5 138q402 938 455 1084h184q77 -242 430 -1151q24 -62 52 -85.5t73 -23.5q5 0 18 1t19 1v-137q-80 6 -293 6q-186 0 -293 -8v139q23 -2 72 -2q50 0 68 12t18 45q0 42 -76 250q-12 29 -29 31q-21 6 -231 6q-136 0 -191 -2 q-33 0 -49 -37q-84 -209 -84 -250q0 -32 19 -43.5t67 -11.5q53 0 76 2v-139q-107 8 -244 8q-131 0 -270 -8zM418 1524q74 205 200 205q45 0 123 -33l66 -25q49 -20 90 -20q31 0 52.5 21.5t41.5 76.5l88 -20q-30 -117 -74 -171.5t-114 -54.5q-53 0 -131 31l-62 22 q-79 27 -100 27q-31 0 -51 -19t-45 -71zM524 647q0 -14 13 -18q12 -4 147 -4q113 0 150 2q26 3 26 24q0 12 -6 27q-30 85 -80 225.5t-69 194.5q-3 -7 -72 -172.5t-101 -247.5q-8 -24 -8 -31z" />
<glyph unicode="&#xc4;" horiz-adv-x="1445" d="M4 -4v139q5 0 16 -1t17 -1q66 0 99.5 38t76.5 138q402 938 455 1084h184q77 -242 430 -1151q24 -62 52 -85.5t73 -23.5q5 0 18 1t19 1v-137q-80 6 -293 6q-186 0 -293 -8v139q23 -2 72 -2q50 0 68 12t18 45q0 42 -76 250q-12 29 -29 31q-21 6 -231 6q-136 0 -191 -2 q-33 0 -49 -37q-84 -209 -84 -250q0 -32 19 -43.5t67 -11.5q53 0 76 2v-139q-107 8 -244 8q-131 0 -270 -8zM446 1618q0 48 31.5 79.5t81.5 31.5t80.5 -31.5t30.5 -79.5t-31.5 -80.5t-81.5 -32.5q-48 0 -79.5 31.5t-31.5 81.5zM524 647q0 -14 13 -18q12 -4 147 -4 q113 0 150 2q26 3 26 24q0 12 -6 27q-30 85 -80 225.5t-69 194.5q-3 -7 -72 -172.5t-101 -247.5q-8 -24 -8 -31zM838 1618q0 48 31 79.5t81 31.5q49 0 80 -31.5t31 -79.5t-32.5 -80.5t-82.5 -32.5q-46 0 -77 31.5t-31 81.5z" />
<glyph unicode="&#xc5;" horiz-adv-x="1445" d="M4 -4v139q5 0 16 -1t17 -1q66 0 99.5 38t76.5 138q402 938 455 1084h184q77 -242 430 -1151q24 -62 52 -85.5t73 -23.5q5 0 18 1t19 1v-137q-80 6 -293 6q-186 0 -293 -8v139q23 -2 72 -2q50 0 68 12t18 45q0 42 -76 250q-12 29 -29 31q-21 6 -231 6q-136 0 -191 -2 q-33 0 -49 -37q-84 -209 -84 -250q0 -32 19 -43.5t67 -11.5q53 0 76 2v-139q-107 8 -244 8q-131 0 -270 -8zM524 647q0 -14 13 -18q12 -4 147 -4q113 0 150 2q26 3 26 24q0 12 -6 27q-30 85 -80 225.5t-69 194.5q-3 -7 -72 -172.5t-101 -247.5q-8 -24 -8 -31zM555 1653 q0 84 58 139t143 55q87 0 140.5 -52t53.5 -136q0 -85 -55.5 -140t-140.5 -55q-86 0 -142.5 52.5t-56.5 136.5zM649 1657q0 -48 29.5 -80.5t75.5 -32.5q44 0 74 31t30 82q0 52 -30.5 82t-73.5 30q-44 0 -74.5 -30t-30.5 -82z" />
<glyph unicode="&#xc6;" horiz-adv-x="2062" d="M0 -4v139q2 0 25 -1t30 -1q55 0 103 44t98 130q373 632 438 744q56 96 56 141q0 55 -109 55q-20 0 -70 -4v141q228 -6 555 -6q658 0 760 6q8 -182 29 -340l-125 -4q-12 83 -31 118.5t-47 51.5q-50 31 -229 31q-121 0 -164 -4q-39 -3 -45 -35q-10 -44 -10 -332 q0 -53 22 -61q18 -6 137 -6q156 0 189 41q27 34 35 119h120q-6 -153 -6 -246q0 -132 4 -230h-123q-7 106 -47 134q-43 28 -176 28q-121 0 -139 -12q-16 -11 -16 -43q2 -197 8 -283.5t22 -111.5q21 -31 60 -44.5t141 -13.5q122 0 181 8t91 29q64 47 107 230l135 -9 q-18 -110 -51 -401q-137 4 -854 4q-18 0 -252 -6v139q15 0 40 -1t32 -1q72 0 86 25t14 118v152q0 66 -25 78q-21 8 -206 8q-130 0 -185 -2q-35 0 -63 -47q-13 -21 -29.5 -50t-36 -64t-28.5 -50q-39 -76 -39 -113q0 -52 88 -55q15 0 49.5 1t36.5 1v-139q-107 8 -293 8 q-162 0 -293 -8zM674 686q0 -14 12 -18q14 -4 139 -4q111 0 150 2q28 0 39 16q10 15 10 72q0 369 -2 420t-25 51q-10 0 -19 -9.5t-28 -39.5q-81 -125 -241 -410q-35 -65 -35 -80z" />
<glyph unicode="&#xc7;" horiz-adv-x="1353" d="M86 651q0 152 37.5 279t102.5 215t153.5 149.5t189 90t209.5 28.5q80 0 170 -22q12 -3 33 -9.5t34 -10t21 -3.5q47 0 47 37l117 6q21 -305 41 -436l-139 -17q-16 80 -37.5 133t-60 94.5t-98 61t-144.5 19.5q-80 0 -152.5 -32.5t-133 -96t-96.5 -172.5t-36 -248 q0 -116 24.5 -210.5t66.5 -158.5t100.5 -107.5t125 -63t140.5 -19.5q231 0 397 192l98 -104q-218 -258 -528 -277l-37 -94q91 -6 139 -48t48 -116q0 -72 -39 -124.5t-102.5 -80.5t-130.5 -40.5t-138 -12.5v105q51 0 89 5t72.5 17.5t53 37t18.5 60.5q0 41 -36 65t-101 24 l-20 40q34 71 73 162q-257 20 -414 206t-157 476z" />
<glyph unicode="&#xc8;" horiz-adv-x="1267" d="M57 -4v139q25 -2 68 -2q71 0 86 31q12 22 12 123q2 160 2 434q0 326 -2 379q-4 106 -12 119q-14 28 -86 28q-41 0 -66 -2v139q26 -1 90.5 -3t121 -3.5t94.5 -1.5q500 0 727 8q8 -182 26 -340l-125 -6q-14 84 -30.5 119t-42.5 51q-30 18 -80 25.5t-174 7.5q-95 0 -140 -4 q-40 -3 -47 -37q-10 -41 -10 -321q0 -56 18 -68q12 -8 134 -8q89 0 131 9t63 30q26 28 37 121h121q-8 -204 -8 -250q0 -155 6 -226h-123q-8 103 -47 131q-39 31 -185 31q-121 0 -133 -12q-14 -14 -14 -55q0 -201 8 -280t25 -107q15 -29 53 -41.5t137 -12.5q126 0 186.5 9 t96.5 36q75 60 104 222l133 -9q-31 -228 -51 -401q-394 4 -813 4q-63 0 -291 -6zM293 1729l153 126q97 -112 318 -337l-55 -60q-293 182 -416 271z" />
<glyph unicode="&#xc9;" horiz-adv-x="1267" d="M57 -4v139q25 -2 68 -2q71 0 86 31q12 22 12 123q2 160 2 434q0 326 -2 379q-4 106 -12 119q-14 28 -86 28q-41 0 -66 -2v139q26 -1 90.5 -3t121 -3.5t94.5 -1.5q500 0 727 8q8 -182 26 -340l-125 -6q-14 84 -30.5 119t-42.5 51q-30 18 -80 25.5t-174 7.5q-95 0 -140 -4 q-40 -3 -47 -37q-10 -41 -10 -321q0 -56 18 -68q12 -8 134 -8q89 0 131 9t63 30q26 28 37 121h121q-8 -204 -8 -250q0 -155 6 -226h-123q-8 103 -47 131q-39 31 -185 31q-121 0 -133 -12q-14 -14 -14 -55q0 -201 8 -280t25 -107q15 -29 53 -41.5t137 -12.5q126 0 186.5 9 t96.5 36q75 60 104 222l133 -9q-31 -228 -51 -401q-394 4 -813 4q-63 0 -291 -6zM477 1518q221 225 318 337l153 -126q-123 -89 -416 -271z" />
<glyph unicode="&#xca;" horiz-adv-x="1267" d="M57 -4v139q25 -2 68 -2q71 0 86 31q12 22 12 123q2 160 2 434q0 326 -2 379q-4 106 -12 119q-14 28 -86 28q-41 0 -66 -2v139q26 -1 90.5 -3t121 -3.5t94.5 -1.5q500 0 727 8q8 -182 26 -340l-125 -6q-14 84 -30.5 119t-42.5 51q-30 18 -80 25.5t-174 7.5q-95 0 -140 -4 q-40 -3 -47 -37q-10 -41 -10 -321q0 -56 18 -68q12 -8 134 -8q89 0 131 9t63 30q26 28 37 121h121q-8 -204 -8 -250q0 -155 6 -226h-123q-8 103 -47 131q-39 31 -185 31q-121 0 -133 -12q-14 -14 -14 -55q0 -201 8 -280t25 -107q15 -29 53 -41.5t137 -12.5q126 0 186.5 9 t96.5 36q75 60 104 222l133 -9q-31 -228 -51 -401q-394 4 -813 4q-63 0 -291 -6zM291 1505q114 117 262 285h158q165 -195 247 -283l-63 -61q-32 24 -272 194q-23 -17 -82 -57t-109.5 -76t-83.5 -61z" />
<glyph unicode="&#xcb;" horiz-adv-x="1267" d="M57 -4v139q25 -2 68 -2q71 0 86 31q12 22 12 123q2 160 2 434q0 326 -2 379q-4 106 -12 119q-14 28 -86 28q-41 0 -66 -2v139q26 -1 90.5 -3t121 -3.5t94.5 -1.5q500 0 727 8q8 -182 26 -340l-125 -6q-14 84 -30.5 119t-42.5 51q-30 18 -80 25.5t-174 7.5q-95 0 -140 -4 q-40 -3 -47 -37q-10 -41 -10 -321q0 -56 18 -68q12 -8 134 -8q89 0 131 9t63 30q26 28 37 121h121q-8 -204 -8 -250q0 -155 6 -226h-123q-8 103 -47 131q-39 31 -185 31q-121 0 -133 -12q-14 -14 -14 -55q0 -201 8 -280t25 -107q15 -29 53 -41.5t137 -12.5q126 0 186.5 9 t96.5 36q75 60 104 222l133 -9q-31 -228 -51 -401q-394 4 -813 4q-63 0 -291 -6zM313 1618q0 48 31.5 79.5t81.5 31.5t80.5 -31.5t30.5 -79.5t-31.5 -80.5t-81.5 -32.5q-48 0 -79.5 31.5t-31.5 81.5zM705 1618q0 48 31 79.5t81 31.5q49 0 80 -31.5t31 -79.5t-32.5 -80.5 t-82.5 -32.5q-46 0 -77 31.5t-31 81.5z" />
<glyph unicode="&#xcc;" horiz-adv-x="702" d="M57 -4v139q15 0 38.5 -1t31.5 -1q71 0 86 27q10 23 10 125q2 158 2 436q0 96 -1 231t-1 148q0 99 -12 123t-84 24q-41 0 -68 -2v139q11 0 122.5 -4t162.5 -4q71 0 299 8v-139q-31 2 -76 2q-57 0 -73 -22q-14 -24 -17 -127q-4 -160 -4 -367q0 -298 4 -446q3 -106 17 -127 q16 -25 73 -25q6 0 33.5 1t44.5 1v-139q-228 8 -301 8q-51 0 -164 -4t-123 -4zM66 1729l153 126q97 -112 318 -337l-56 -60q-285 178 -415 271z" />
<glyph unicode="&#xcd;" horiz-adv-x="702" d="M57 -4v139q15 0 38.5 -1t31.5 -1q71 0 86 27q10 23 10 125q2 158 2 436q0 96 -1 231t-1 148q0 99 -12 123t-84 24q-41 0 -68 -2v139q11 0 122.5 -4t162.5 -4q71 0 299 8v-139q-31 2 -76 2q-57 0 -73 -22q-14 -24 -17 -127q-4 -160 -4 -367q0 -298 4 -446q3 -106 17 -127 q16 -25 73 -25q6 0 33.5 1t44.5 1v-139q-228 8 -301 8q-51 0 -164 -4t-123 -4zM182 1518q221 225 318 337l153 -126q-130 -93 -415 -271z" />
<glyph unicode="&#xce;" horiz-adv-x="702" d="M14 1505q114 117 262 285h158q156 -185 248 -283l-64 -61q-32 24 -272 194q-22 -16 -81.5 -57t-109.5 -76.5t-83 -60.5zM57 -4v139q15 0 38.5 -1t31.5 -1q71 0 86 27q10 23 10 125q2 158 2 436q0 96 -1 231t-1 148q0 99 -12 123t-84 24q-41 0 -68 -2v139q11 0 122.5 -4 t162.5 -4q71 0 299 8v-139q-31 2 -76 2q-57 0 -73 -22q-14 -24 -17 -127q-4 -160 -4 -367q0 -298 4 -446q3 -106 17 -127q16 -25 73 -25q6 0 33.5 1t44.5 1v-139q-228 8 -301 8q-51 0 -164 -4t-123 -4z" />
<glyph unicode="&#xcf;" horiz-adv-x="702" d="M39 1618q0 48 31.5 79.5t81.5 31.5t80 -31.5t30 -79.5t-31 -80.5t-81 -32.5q-48 0 -79.5 31.5t-31.5 81.5zM57 -4v139q15 0 38.5 -1t31.5 -1q71 0 86 27q10 23 10 125q2 158 2 436q0 96 -1 231t-1 148q0 99 -12 123t-84 24q-41 0 -68 -2v139q11 0 122.5 -4t162.5 -4 q71 0 299 8v-139q-31 2 -76 2q-57 0 -73 -22q-14 -24 -17 -127q-4 -160 -4 -367q0 -298 4 -446q3 -106 17 -127q16 -25 73 -25q6 0 33.5 1t44.5 1v-139q-228 8 -301 8q-51 0 -164 -4t-123 -4zM430 1618q0 48 31.5 79.5t81.5 31.5q49 0 79.5 -31.5t30.5 -79.5t-32 -80.5 t-82 -32.5q-47 0 -78 31.5t-31 81.5z" />
<glyph unicode="&#xd0;" horiz-adv-x="1550" d="M45 649v158q82 -4 180 -4q0 254 -2 297q-4 103 -12 123q-13 24 -88 24q-44 0 -64 -2v139q12 0 126.5 -4t160.5 -4q34 0 169 3t179 3q176 0 309 -35t233 -111.5t152 -207t52 -313.5q0 -152 -50 -282t-143.5 -227.5t-240 -152.5t-328.5 -55q-60 0 -184 3t-148 3 q-51 0 -164 -4t-123 -4v139q25 -2 58 -2q80 0 92 27q14 28 14 125q2 102 2 366q-31 0 -91 -1t-89 -1zM469 651q0 -252 6 -358q5 -78 31 -111q34 -43 213 -43q233 0 338.5 142.5t105.5 439.5q0 94 -15 170t-50 142.5t-90.5 111.5t-140.5 70.5t-195 25.5q-148 0 -170 -20 q-26 -26 -29 -99q-4 -86 -4 -319q235 0 358 4v-158q-96 2 -358 2z" />
<glyph unicode="&#xd1;" horiz-adv-x="1583" d="M45 1245v139q99 -6 262 -6q81 0 180 6q49 -87 115 -172q357 -467 606 -770q-4 475 -12 652q-2 84 -22 123q-18 30 -91 30q-46 0 -71 -2v141q132 -8 278 -8q26 0 246 8v-141q-31 2 -57 2q-60 0 -82 -22q-24 -21 -27 -121q-6 -408 -6 -569q0 -343 12 -535l-137 -27 q-182 239 -453 586t-409 518q0 -452 14 -807q2 -74 25 -108q23 -29 86 -29q5 0 32.5 1t43.5 1v-139q-126 8 -283 8q-2 0 -246 -8v139q16 0 37 -1t29 -1q57 0 84 27q19 22 22 133q4 303 4 790q0 54 -6 79.5t-22 45.5q-31 37 -95 39q-34 0 -57 -2zM465 1524q74 205 201 205 q44 0 122 -33l66 -25q49 -20 90 -20q31 0 52.5 21.5t41.5 76.5l88 -20q-30 -117 -74 -171.5t-114 -54.5q-53 0 -131 31l-62 22q-79 27 -100 27q-31 0 -51 -19t-45 -71z" />
<glyph unicode="&#xd2;" horiz-adv-x="1550" d="M86 659q0 347 200 550.5t537 203.5q136 0 254 -47.5t203.5 -133.5t134.5 -214.5t49 -282.5q0 -353 -198 -560.5t-525 -207.5q-295 0 -475 187.5t-180 504.5zM346 725q0 -294 122.5 -451t328.5 -157q186 0 290.5 138t104.5 407q0 95 -13 179t-44.5 164t-79.5 137 t-123.5 91.5t-171.5 34.5q-190 0 -302 -145t-112 -398zM471 1729l154 126q105 -121 317 -337l-55 -60q-293 182 -416 271z" />
<glyph unicode="&#xd3;" horiz-adv-x="1550" d="M86 659q0 347 200 550.5t537 203.5q136 0 254 -47.5t203.5 -133.5t134.5 -214.5t49 -282.5q0 -353 -198 -560.5t-525 -207.5q-295 0 -475 187.5t-180 504.5zM346 725q0 -294 122.5 -451t328.5 -157q186 0 290.5 138t104.5 407q0 95 -13 179t-44.5 164t-79.5 137 t-123.5 91.5t-171.5 34.5q-190 0 -302 -145t-112 -398zM592 1518q212 216 317 337l154 -126q-123 -89 -416 -271z" />
<glyph unicode="&#xd4;" horiz-adv-x="1550" d="M86 659q0 347 200 550.5t537 203.5q136 0 254 -47.5t203.5 -133.5t134.5 -214.5t49 -282.5q0 -353 -198 -560.5t-525 -207.5q-295 0 -475 187.5t-180 504.5zM346 725q0 -294 122.5 -451t328.5 -157q186 0 290.5 138t104.5 407q0 95 -13 179t-44.5 164t-79.5 137 t-123.5 91.5t-171.5 34.5q-190 0 -302 -145t-112 -398zM442 1505q124 126 263 285h157q156 -185 248 -283l-63 -61q-43 32 -92 67t-105 74t-76 53q-22 -16 -81.5 -57t-109.5 -76.5t-83 -60.5z" />
<glyph unicode="&#xd5;" horiz-adv-x="1550" d="M86 659q0 347 200 550.5t537 203.5q136 0 254 -47.5t203.5 -133.5t134.5 -214.5t49 -282.5q0 -353 -198 -560.5t-525 -207.5q-295 0 -475 187.5t-180 504.5zM346 725q0 -294 122.5 -451t328.5 -157q186 0 290.5 138t104.5 407q0 95 -13 179t-44.5 164t-79.5 137 t-123.5 91.5t-171.5 34.5q-190 0 -302 -145t-112 -398zM438 1524q74 205 201 205q45 0 123 -33l65 -25q49 -20 91 -20q31 0 52.5 21.5t41.5 76.5l88 -20q-30 -117 -74 -171.5t-115 -54.5q-53 0 -131 31l-61 22q-79 27 -101 27q-31 0 -51 -19t-45 -71z" />
<glyph unicode="&#xd6;" horiz-adv-x="1550" d="M86 659q0 347 200 550.5t537 203.5q136 0 254 -47.5t203.5 -133.5t134.5 -214.5t49 -282.5q0 -353 -198 -560.5t-525 -207.5q-295 0 -475 187.5t-180 504.5zM346 725q0 -294 122.5 -451t328.5 -157q186 0 290.5 138t104.5 407q0 95 -13 179t-44.5 164t-79.5 137 t-123.5 91.5t-171.5 34.5q-190 0 -302 -145t-112 -398zM463 1618q0 48 31 79.5t81 31.5t80.5 -31.5t30.5 -79.5t-31.5 -80.5t-81.5 -32.5q-48 0 -79 31.5t-31 81.5zM854 1618q0 48 31.5 79.5t81.5 31.5q49 0 79.5 -31.5t30.5 -79.5t-32 -80.5t-82 -32.5q-47 0 -78 31.5 t-31 81.5z" />
<glyph unicode="&#xd7;" horiz-adv-x="1251" d="M240 879l110 116l277 -274l272 274l109 -108l-275 -273l279 -274l-109 -113l-278 273l-273 -273l-108 107l274 274z" />
<glyph unicode="&#xd8;" horiz-adv-x="1550" d="M86 659q0 347 200 550.5t537 203.5q178 0 330 -84l111 150l102 -80l-109 -146q207 -194 207 -518q0 -353 -198 -560.5t-525 -207.5q-211 0 -366 96l-111 -149l-100 78l112 151q-190 190 -190 516zM346 725q0 -234 78 -381l606 821q-108 103 -270 103q-190 0 -302 -145 t-112 -398zM502 233q116 -116 295 -116q186 0 290.5 138t104.5 407q0 239 -82 393z" />
<glyph unicode="&#xd9;" horiz-adv-x="1560" d="M45 1245v139q148 -8 295 -8q157 0 297 8v-139q-20 2 -57 2q-80 0 -99 -24q-23 -26 -26 -131q-6 -282 -6 -533q0 -223 86.5 -321.5t285.5 -98.5q197 0 283 114.5t86 332.5q0 444 -4 512q-3 98 -27 125q-21 24 -90 24q-45 0 -63 -2v139q144 -8 299 -8q85 0 225 8v-139 q-23 2 -53 2q-39 0 -52.5 -4t-33.5 -20q-25 -22 -25 -131q-2 -182 -2 -549q0 -280 -141.5 -429t-425.5 -149q-310 0 -452 132t-142 384q0 150 2 357t2 260q0 93 -19 125q-17 24 -84 24q-39 0 -59 -2zM465 1729l153 126q97 -112 318 -337l-55 -60q-293 182 -416 271z" />
<glyph unicode="&#xda;" horiz-adv-x="1560" d="M45 1245v139q148 -8 295 -8q157 0 297 8v-139q-20 2 -57 2q-80 0 -99 -24q-23 -26 -26 -131q-6 -282 -6 -533q0 -223 86.5 -321.5t285.5 -98.5q197 0 283 114.5t86 332.5q0 444 -4 512q-3 98 -27 125q-21 24 -90 24q-45 0 -63 -2v139q144 -8 299 -8q85 0 225 8v-139 q-23 2 -53 2q-39 0 -52.5 -4t-33.5 -20q-25 -22 -25 -131q-2 -182 -2 -549q0 -280 -141.5 -429t-425.5 -149q-310 0 -452 132t-142 384q0 150 2 357t2 260q0 93 -19 125q-17 24 -84 24q-39 0 -59 -2zM606 1518q221 225 318 337l153 -126q-130 -93 -415 -271z" />
<glyph unicode="&#xdb;" horiz-adv-x="1560" d="M45 1245v139q148 -8 295 -8q157 0 297 8v-139q-20 2 -57 2q-80 0 -99 -24q-23 -26 -26 -131q-6 -282 -6 -533q0 -223 86.5 -321.5t285.5 -98.5q197 0 283 114.5t86 332.5q0 444 -4 512q-3 98 -27 125q-21 24 -90 24q-45 0 -63 -2v139q144 -8 299 -8q85 0 225 8v-139 q-23 2 -53 2q-39 0 -52.5 -4t-33.5 -20q-25 -22 -25 -131q-2 -182 -2 -549q0 -280 -141.5 -429t-425.5 -149q-310 0 -452 132t-142 384q0 150 2 357t2 260q0 93 -19 125q-17 24 -84 24q-39 0 -59 -2zM473 1505q114 117 262 285h158q156 -185 248 -283l-64 -61 q-32 24 -272 194q-23 -17 -82 -57t-109.5 -76t-83.5 -61z" />
<glyph unicode="&#xdc;" horiz-adv-x="1560" d="M45 1245v139q148 -8 295 -8q157 0 297 8v-139q-20 2 -57 2q-80 0 -99 -24q-23 -26 -26 -131q-6 -282 -6 -533q0 -223 86.5 -321.5t285.5 -98.5q197 0 283 114.5t86 332.5q0 444 -4 512q-3 98 -27 125q-21 24 -90 24q-45 0 -63 -2v139q144 -8 299 -8q85 0 225 8v-139 q-23 2 -53 2q-39 0 -52.5 -4t-33.5 -20q-25 -22 -25 -131q-2 -182 -2 -549q0 -280 -141.5 -429t-425.5 -149q-310 0 -452 132t-142 384q0 150 2 357t2 260q0 93 -19 125q-17 24 -84 24q-39 0 -59 -2zM473 1618q0 48 31.5 79.5t81.5 31.5t80 -31.5t30 -79.5t-31 -80.5 t-81 -32.5q-48 0 -79.5 31.5t-31.5 81.5zM864 1618q0 48 31.5 79.5t81.5 31.5q49 0 79.5 -31.5t30.5 -79.5t-32 -80.5t-82 -32.5q-47 0 -78 31.5t-31 81.5z" />
<glyph unicode="&#xdd;" horiz-adv-x="1349" d="M0 1245v139q78 -6 285 -6q247 0 325 6v-139q-2 0 -22.5 1t-36.5 1q-52 0 -73.5 -9.5t-22.5 -37.5q0 -39 53 -123q21 -34 51 -80.5t76 -117.5t78 -121q169 264 207 329q36 64 36 105q0 28 -18.5 41t-77.5 14q-14 0 -24 -0.5t-15.5 -1t-7.5 -0.5v139q78 -6 279 -6 q180 0 258 6v-139q-10 2 -31 2q-49 0 -83 -23.5t-71 -74.5q-121 -163 -379 -567q0 -48 2 -137.5t3 -161.5q0 -99 12 -121q16 -29 96 -29q43 0 68 2v-139q-24 1 -86.5 3t-117.5 3.5t-93 1.5q-187 0 -301 -8v139q37 -2 77 -2q64 0 78 27q16 24 19 123q2 72 2 295 q-35 60 -68.5 114t-77 121t-65 99.5t-82 123t-78.5 117.5q-34 52 -65 73t-74 21q-23 0 -35 -2zM547 1518q212 216 317 337l154 -126q-123 -89 -416 -271z" />
<glyph unicode="&#xde;" horiz-adv-x="1241" d="M57 -4v139q15 0 38.5 -1t31.5 -1q71 0 86 27q10 23 10 125q2 158 2 436q0 96 -1 231t-1 148q0 103 -10 123q-12 24 -86 24q-41 0 -68 -2v139q12 0 122 -4t161 -4q71 0 299 8v-139q-31 2 -76 2q-57 0 -73 -22q-18 -28 -21 -119q70 6 186 6q506 0 506 -364 q0 -445 -581 -445q-57 0 -111 4q0 -14 1 -37t1 -30q3 -56 21 -82q19 -25 79 -25q6 0 29.5 1t40.5 1v-139q-114 8 -301 8q-51 0 -162.5 -4t-122.5 -4zM469 524q0 -64 29 -73q26 -9 104 -9q153 0 225 65t72 228q0 236 -289 236q-98 0 -121 -23q-16 -19 -18 -100 q0 -9 -1 -110.5t-1 -213.5z" />
<glyph unicode="&#xdf;" horiz-adv-x="1214" d="M61 -4v137q25 -2 50 -2q69 0 90 21q11 10 13.5 36t2.5 88q2 72 2 379q0 121 -2 174q-100 0 -141 -4v144q56 0 96 8q24 7 35 25t22 83q22 125 72 215q64 111 170.5 170.5t247.5 59.5q84 0 149 -25t103 -66.5t57 -90t19 -101.5q0 -95 -31.5 -164t-106.5 -143 q-78 -75 -100.5 -104t-22.5 -52q0 -29 32.5 -61t156.5 -123q90 -66 138 -134.5t48 -156.5q0 -84 -32.5 -150.5t-87.5 -106.5t-123 -60.5t-144 -20.5q-123 0 -187.5 45.5t-64.5 110.5q0 45 27 74.5t76 29.5q64 0 84 -55q25 -74 92 -74q59 0 96 35.5t37 102.5q0 58 -34 105.5 t-122 115.5q-127 99 -169 145t-42 103q0 40 23.5 80t91.5 114q145 162 145 318q0 76 -40.5 119.5t-106.5 43.5q-61 0 -103.5 -28.5t-74.5 -87.5q-30 -60 -43 -197.5t-13 -480.5q0 -452 9 -592q-106 4 -160 4q-6 0 -234 -6z" />
<glyph unicode="&#xe0;" horiz-adv-x="1093" d="M61 260q0 180 183 240q44 15 96 26t134.5 24.5t119.5 20.5q53 9 69.5 26t16.5 60q0 116 -41.5 160.5t-134.5 44.5q-76 0 -105 -37q-24 -24 -30 -80q-4 -37 -35 -54t-74 -17q-49 0 -79.5 24.5t-30.5 79.5q0 98 111.5 164t307.5 66q165 0 249.5 -62.5t84.5 -216.5 q0 -40 -6 -189t-6 -237q0 -71 11.5 -109t27.5 -47.5t43 -9.5q37 0 74 15l24 -132q-41 -17 -102 -28.5t-107 -11.5q-87 0 -133.5 28.5t-60.5 108.5q-73 -73 -154 -108.5t-156 -35.5q-131 0 -214 84.5t-83 202.5zM272 1427l181 86q87 -174 206 -383l-67 -40q-222 226 -320 337 zM301 274q0 -55 37.5 -89.5t99.5 -34.5q43 0 89.5 15t76.5 40q68 57 68 186q0 45 -41 45q-86 0 -228 -43q-102 -32 -102 -119z" />
<glyph unicode="&#xe1;" horiz-adv-x="1093" d="M61 260q0 180 183 240q44 15 96 26t134.5 24.5t119.5 20.5q53 9 69.5 26t16.5 60q0 116 -41.5 160.5t-134.5 44.5q-76 0 -105 -37q-24 -24 -30 -80q-4 -37 -35 -54t-74 -17q-49 0 -79.5 24.5t-30.5 79.5q0 98 111.5 164t307.5 66q165 0 249.5 -62.5t84.5 -216.5 q0 -40 -6 -189t-6 -237q0 -71 11.5 -109t27.5 -47.5t43 -9.5q37 0 74 15l24 -132q-41 -17 -102 -28.5t-107 -11.5q-87 0 -133.5 28.5t-60.5 108.5q-73 -73 -154 -108.5t-156 -35.5q-131 0 -214 84.5t-83 202.5zM301 274q0 -55 37.5 -89.5t99.5 -34.5q43 0 89.5 15t76.5 40 q68 57 68 186q0 45 -41 45q-86 0 -228 -43q-102 -32 -102 -119zM414 1130q145 255 207 381l182 -84q-135 -150 -322 -337z" />
<glyph unicode="&#xe2;" horiz-adv-x="1093" d="M61 260q0 180 183 240q44 15 96 26t134.5 24.5t119.5 20.5q53 9 69.5 26t16.5 60q0 116 -41.5 160.5t-134.5 44.5q-76 0 -105 -37q-24 -24 -30 -80q-4 -37 -35 -54t-74 -17q-49 0 -79.5 24.5t-30.5 79.5q0 98 111.5 164t307.5 66q165 0 249.5 -62.5t84.5 -216.5 q0 -40 -6 -189t-6 -237q0 -71 11.5 -109t27.5 -47.5t43 -9.5q37 0 74 15l24 -132q-41 -17 -102 -28.5t-107 -11.5q-87 0 -133.5 28.5t-60.5 108.5q-73 -73 -154 -108.5t-156 -35.5q-131 0 -214 84.5t-83 202.5zM242 1122q78 102 237 330h121q132 -202 221 -328l-73 -47 q-98 103 -218 215q-71 -66 -219 -219zM301 274q0 -55 37.5 -89.5t99.5 -34.5q43 0 89.5 15t76.5 40q68 57 68 186q0 45 -41 45q-86 0 -228 -43q-102 -32 -102 -119z" />
<glyph unicode="&#xe3;" horiz-adv-x="1093" d="M61 260q0 180 183 240q44 15 96 26t134.5 24.5t119.5 20.5q53 9 69.5 26t16.5 60q0 116 -41.5 160.5t-134.5 44.5q-76 0 -105 -37q-24 -24 -30 -80q-4 -37 -35 -54t-74 -17q-49 0 -79.5 24.5t-30.5 79.5q0 98 111.5 164t307.5 66q165 0 249.5 -62.5t84.5 -216.5 q0 -40 -6 -189t-6 -237q0 -71 11.5 -109t27.5 -47.5t43 -9.5q37 0 74 15l24 -132q-41 -17 -102 -28.5t-107 -11.5q-87 0 -133.5 28.5t-60.5 108.5q-73 -73 -154 -108.5t-156 -35.5q-131 0 -214 84.5t-83 202.5zM207 1155q71 211 190 211q35 0 117 -33l64 -26q51 -21 81 -21 t50.5 22t38.5 78l88 -22q-28 -117 -70.5 -172t-108.5 -55q-59 0 -125 28l-59 25q-75 27 -92 27q-30 0 -49 -20t-41 -73zM301 274q0 -55 37.5 -89.5t99.5 -34.5q43 0 89.5 15t76.5 40q68 57 68 186q0 45 -41 45q-86 0 -228 -43q-102 -32 -102 -119z" />
<glyph unicode="&#xe4;" horiz-adv-x="1093" d="M61 260q0 180 183 240q44 15 96 26t134.5 24.5t119.5 20.5q53 9 69.5 26t16.5 60q0 116 -41.5 160.5t-134.5 44.5q-76 0 -105 -37q-24 -24 -30 -80q-4 -37 -35 -54t-74 -17q-49 0 -79.5 24.5t-30.5 79.5q0 98 111.5 164t307.5 66q165 0 249.5 -62.5t84.5 -216.5 q0 -40 -6 -189t-6 -237q0 -71 11.5 -109t27.5 -47.5t43 -9.5q37 0 74 15l24 -132q-41 -17 -102 -28.5t-107 -11.5q-87 0 -133.5 28.5t-60.5 108.5q-73 -73 -154 -108.5t-156 -35.5q-131 0 -214 84.5t-83 202.5zM244 1274q0 48 30 79t80 31q49 0 79 -31t30 -79t-31 -79.5 t-80 -31.5q-47 0 -77.5 31t-30.5 80zM301 274q0 -55 37.5 -89.5t99.5 -34.5q43 0 89.5 15t76.5 40q68 57 68 186q0 45 -41 45q-86 0 -228 -43q-102 -32 -102 -119zM606 1274q0 48 30.5 79t80.5 31q49 0 78.5 -31t29.5 -79t-31 -79.5t-81 -31.5q-46 0 -76.5 31t-30.5 80z" />
<glyph unicode="&#xe5;" horiz-adv-x="1093" d="M61 260q0 180 183 240q44 15 96 26t134.5 24.5t119.5 20.5q53 9 69.5 26t16.5 60q0 116 -41.5 160.5t-134.5 44.5q-76 0 -105 -37q-24 -24 -30 -80q-4 -37 -35 -54t-74 -17q-49 0 -79.5 24.5t-30.5 79.5q0 98 111.5 164t307.5 66q165 0 249.5 -62.5t84.5 -216.5 q0 -40 -6 -189t-6 -237q0 -71 11.5 -109t27.5 -47.5t43 -9.5q37 0 74 15l24 -132q-41 -17 -102 -28.5t-107 -11.5q-87 0 -133.5 28.5t-60.5 108.5q-73 -73 -154 -108.5t-156 -35.5q-131 0 -214 84.5t-83 202.5zM301 274q0 -55 37.5 -89.5t99.5 -34.5q43 0 89.5 15t76.5 40 q68 57 68 186q0 45 -41 45q-86 0 -228 -43q-102 -32 -102 -119zM326 1280q0 86 58.5 142.5t143.5 56.5q89 0 144 -54t55 -139t-57.5 -140.5t-143.5 -55.5t-143 52.5t-57 137.5zM420 1284q0 -49 29 -82t77 -33q45 0 76 32t31 83q0 54 -31 85.5t-76 31.5t-75.5 -31.5 t-30.5 -85.5z" />
<glyph unicode="&#xe6;" horiz-adv-x="1611" d="M61 256q0 100 48.5 156.5t134.5 85.5q43 14 97 25.5t140 26t121 21.5q43 8 60.5 25.5t17.5 56.5q0 65 -11.5 107t-36 64t-55 30t-77.5 8q-69 0 -99 -33q-22 -28 -32 -77q-14 -76 -107 -76q-112 0 -112 104q0 97 110.5 162.5t308.5 65.5q108 0 176 -31.5t105 -97.5 q124 131 324 131q183 0 278.5 -104t95.5 -281q0 -56 -18.5 -78t-63.5 -25q-133 -9 -569 -14q-4 -16 -4 -49q0 -59 15.5 -111.5t48.5 -97t90.5 -70.5t134.5 -26q156 0 293 147l100 -92q-94 -117 -205 -178.5t-258 -61.5q-127 0 -221 48.5t-148 136.5q-83 -90 -174 -135.5 t-204 -45.5q-132 0 -218 83.5t-86 199.5zM297 272q0 -52 39.5 -88.5t99.5 -36.5q45 0 93.5 17.5t80.5 46.5q62 57 62 176q0 47 -45 47q-38 0 -112.5 -13.5t-119.5 -29.5q-52 -18 -75 -44.5t-23 -74.5zM911 664q0 -23 31 -25q33 -2 135 -2q183 0 217 27q17 17 17 57 q0 74 -46 111.5t-116 37.5q-82 0 -143.5 -41.5t-87.5 -121.5q-7 -25 -7 -43z" />
<glyph unicode="&#xe7;" horiz-adv-x="985" d="M76 446q0 250 148 407t388 157q139 0 219 -57t80 -140q0 -66 -32 -93.5t-80 -27.5q-92 0 -111 80q-13 54 -38.5 72t-78.5 18q-106 0 -183 -91t-77 -263q0 -177 76.5 -266.5t194.5 -89.5q150 0 278 141l96 -90q-151 -201 -370 -230l-35 -94q86 -6 132 -46.5t46 -111.5 q0 -69 -37 -119.5t-98 -77t-125 -38.5t-131 -12v100q49 0 86 4.5t69.5 16.5t50 35.5t17.5 58.5q0 39 -34 62.5t-97 23.5l-18 39l69 157q-188 10 -296.5 139t-108.5 336z" />
<glyph unicode="&#xe8;" horiz-adv-x="1024" d="M76 453q0 242 142.5 399.5t371.5 157.5q178 0 275.5 -104.5t97.5 -282.5q0 -55 -19 -77.5t-65 -25.5q-159 -9 -570 -12q-2 -20 -2 -53q0 -43 9 -84t30 -81t53 -69.5t83 -48t114 -18.5q156 0 293 147l98 -92q-94 -116 -205 -178t-254 -62q-212 0 -332 132t-120 352z M311 1427l181 86q87 -174 206 -383l-67 -40q-222 226 -320 337zM326 664q0 -25 26 -25q31 -2 119 -2q199 0 234 25q20 17 20 55q0 78 -47 114.5t-121 36.5q-47 0 -89.5 -14.5t-79.5 -50t-54 -88.5q-8 -32 -8 -51z" />
<glyph unicode="&#xe9;" horiz-adv-x="1024" d="M76 453q0 242 142.5 399.5t371.5 157.5q178 0 275.5 -104.5t97.5 -282.5q0 -55 -19 -77.5t-65 -25.5q-159 -9 -570 -12q-2 -20 -2 -53q0 -43 9 -84t30 -81t53 -69.5t83 -48t114 -18.5q156 0 293 147l98 -92q-94 -116 -205 -178t-254 -62q-212 0 -332 132t-120 352z M326 664q0 -25 26 -25q31 -2 119 -2q199 0 234 25q20 17 20 55q0 78 -47 114.5t-121 36.5q-47 0 -89.5 -14.5t-79.5 -50t-54 -88.5q-8 -32 -8 -51zM430 1130q145 255 207 381l182 -84q-144 -160 -321 -337z" />
<glyph unicode="&#xea;" horiz-adv-x="1024" d="M76 453q0 242 142.5 399.5t371.5 157.5q178 0 275.5 -104.5t97.5 -282.5q0 -55 -19 -77.5t-65 -25.5q-159 -9 -570 -12q-2 -20 -2 -53q0 -43 9 -84t30 -81t53 -69.5t83 -48t114 -18.5q156 0 293 147l98 -92q-94 -116 -205 -178t-254 -62q-212 0 -332 132t-120 352z M248 1122q78 102 237 330h121q132 -202 221 -328l-73 -47q-105 111 -217 215q-81 -76 -220 -219zM326 664q0 -25 26 -25q31 -2 119 -2q199 0 234 25q20 17 20 55q0 78 -47 114.5t-121 36.5q-47 0 -89.5 -14.5t-79.5 -50t-54 -88.5q-8 -32 -8 -51z" />
<glyph unicode="&#xeb;" horiz-adv-x="1024" d="M76 453q0 242 142.5 399.5t371.5 157.5q178 0 275.5 -104.5t97.5 -282.5q0 -55 -19 -77.5t-65 -25.5q-159 -9 -570 -12q-2 -20 -2 -53q0 -43 9 -84t30 -81t53 -69.5t83 -48t114 -18.5q156 0 293 147l98 -92q-94 -116 -205 -178t-254 -62q-212 0 -332 132t-120 352z M262 1274q0 48 30.5 79t80.5 31q49 0 78.5 -31t29.5 -79t-30.5 -79.5t-79.5 -31.5q-48 0 -78.5 31t-30.5 80zM326 664q0 -25 26 -25q31 -2 119 -2q199 0 234 25q20 17 20 55q0 78 -47 114.5t-121 36.5q-47 0 -89.5 -14.5t-79.5 -50t-54 -88.5q-8 -32 -8 -51zM625 1274 q0 48 30 79t80 31q49 0 79 -31t30 -79t-31.5 -79.5t-81.5 -31.5q-46 0 -76 31t-30 80z" />
<glyph unicode="&#xec;" horiz-adv-x="645" d="M57 834v137q252 0 389 37l17 -27q-19 -186 -19 -442q0 -168 2 -252q3 -109 15 -131q16 -25 80 -25q24 0 57 2v-137q-114 8 -266 8q-50 0 -160 -4l-111 -4v137q25 -2 52 -2q75 0 90 27q10 18 14 129q2 74 2 219q0 202 -10 278q-9 52 -100 52q-27 0 -52 -2zM74 1427l180 86 q80 -159 207 -383l-68 -40q-212 216 -319 337z" />
<glyph unicode="&#xed;" horiz-adv-x="645" d="M57 834v137q252 0 389 37l17 -27q-19 -186 -19 -442q0 -168 2 -252q3 -109 15 -131q16 -25 80 -25q24 0 57 2v-137q-114 8 -266 8q-50 0 -160 -4l-111 -4v137q25 -2 52 -2q75 0 90 27q10 18 14 129q2 74 2 219q0 202 -10 278q-9 52 -100 52q-27 0 -52 -2zM170 1130 q145 255 207 381l182 -84q-144 -160 -321 -337z" />
<glyph unicode="&#xee;" horiz-adv-x="645" d="M2 1122q90 117 238 330h120q120 -183 222 -328l-74 -47q-105 111 -217 215q-71 -66 -219 -219zM57 834v137q252 0 389 37l17 -27q-19 -186 -19 -442q0 -168 2 -252q3 -109 15 -131q16 -25 80 -25q24 0 57 2v-137q-114 8 -266 8q-50 0 -160 -4l-111 -4v137q25 -2 52 -2 q75 0 90 27q10 18 14 129q2 74 2 219q0 202 -10 278q-9 52 -100 52q-27 0 -52 -2z" />
<glyph unicode="&#xef;" horiz-adv-x="645" d="M-2 1274q0 48 30.5 79t80.5 31q49 0 78.5 -31t29.5 -79t-31 -79.5t-80 -31.5q-47 0 -77.5 31t-30.5 80zM57 834v137q252 0 389 37l17 -27q-19 -186 -19 -442q0 -168 2 -252q3 -109 15 -131q16 -25 80 -25q24 0 57 2v-137q-114 8 -266 8q-50 0 -160 -4l-111 -4v137 q25 -2 52 -2q75 0 90 27q10 18 14 129q2 74 2 219q0 202 -10 278q-9 52 -100 52q-27 0 -52 -2zM360 1274q0 48 30.5 79t80.5 31q49 0 79 -31t30 -79t-31.5 -79.5t-81.5 -31.5q-46 0 -76.5 31t-30.5 80z" />
<glyph unicode="&#xf0;" horiz-adv-x="1150" d="M76 461q0 241 138 384.5t380 143.5q104 0 166 -51q-50 112 -158 209l-242 -119l-57 121l184 86q-95 62 -208 100l49 119q183 -41 334 -133q159 76 192 96l61 -119l-135 -65q293 -260 293 -705q0 -252 -137.5 -404.5t-384.5 -152.5q-145 0 -254 66t-165 176.5t-56 247.5z M317 524q0 -201 71.5 -304t199.5 -103q118 0 185 85t67 257q0 77 -12.5 143t-40.5 126t-81.5 95t-127.5 35q-125 0 -193 -90t-68 -244z" />
<glyph unicode="&#xf1;" horiz-adv-x="1269" d="M57 -4v137q27 -2 52 -2q73 0 92 29q14 23 14 123q2 92 2 235q0 223 -12 270q-12 48 -101 48q-29 0 -47 -2v137q249 0 375 35l23 -25q-1 -20 -5.5 -68t-5.5 -79q205 174 367 174q193 0 244 -179q11 -37 16 -92.5t5.5 -93.5t0.5 -129v-231q0 -105 15 -127q16 -25 79 -25 q33 0 60 2v-137q-236 8 -262 8q-49 0 -148 -4t-116 -4v137q20 -2 51 -2q54 0 75 31q25 51 25 219q0 178 -10 264.5t-39 122.5q-38 49 -121 49q-51 0 -108 -25.5t-93 -72.5q-43 -52 -43 -207q0 -145 2 -229q3 -105 15 -127q16 -25 71 -25q31 0 56 2v-137q-236 8 -252 8 q-51 0 -158.5 -4t-118.5 -4zM317 1155q71 211 191 211q34 0 117 -33l63 -26q51 -21 82 -21q30 0 50 22t38 78l88 -22q-28 -118 -70 -172.5t-108 -54.5q-59 0 -125 28l-59 25q-75 27 -92 27q-30 0 -50 -20t-41 -73z" />
<glyph unicode="&#xf2;" horiz-adv-x="1150" d="M76 461q0 241 147 395t387 154q209 0 336 -134.5t127 -349.5q0 -250 -140.5 -402.5t-383.5 -152.5q-214 0 -343.5 140t-129.5 350zM311 1427l181 86q87 -174 206 -383l-67 -40q-222 226 -320 337zM317 524q0 -201 71.5 -304t199.5 -103q118 0 185 85t67 257 q0 77 -12.5 143.5t-40.5 127.5t-81.5 96.5t-127.5 35.5q-125 0 -193 -92t-68 -246z" />
<glyph unicode="&#xf3;" horiz-adv-x="1150" d="M76 461q0 241 147 395t387 154q209 0 336 -134.5t127 -349.5q0 -250 -140.5 -402.5t-383.5 -152.5q-214 0 -343.5 140t-129.5 350zM317 524q0 -201 71.5 -304t199.5 -103q118 0 185 85t67 257q0 77 -12.5 143.5t-40.5 127.5t-81.5 96.5t-127.5 35.5q-125 0 -193 -92 t-68 -246zM438 1130q145 255 207 381l182 -84q-144 -160 -321 -337z" />
<glyph unicode="&#xf4;" horiz-adv-x="1150" d="M76 461q0 241 147 395t387 154q209 0 336 -134.5t127 -349.5q0 -250 -140.5 -402.5t-383.5 -152.5q-214 0 -343.5 140t-129.5 350zM283 1122q78 102 237 330h121q132 -202 221 -328l-74 -47q-105 111 -217 215q-71 -66 -219 -219zM317 524q0 -201 71.5 -304t199.5 -103 q118 0 185 85t67 257q0 77 -12.5 143.5t-40.5 127.5t-81.5 96.5t-127.5 35.5q-125 0 -193 -92t-68 -246z" />
<glyph unicode="&#xf5;" horiz-adv-x="1150" d="M76 461q0 241 147 395t387 154q209 0 336 -134.5t127 -349.5q0 -250 -140.5 -402.5t-383.5 -152.5q-214 0 -343.5 140t-129.5 350zM258 1155q71 211 191 211q33 0 116 -33l64 -26q51 -21 82 -21q30 0 50 22t38 78l88 -22q-28 -118 -70 -172.5t-108 -54.5q-59 0 -125 28 l-60 25q-75 27 -92 27q-30 0 -49 -20t-41 -73zM317 524q0 -201 71.5 -304t199.5 -103q118 0 185 85t67 257q0 77 -12.5 143.5t-40.5 127.5t-81.5 96.5t-127.5 35.5q-125 0 -193 -92t-68 -246z" />
<glyph unicode="&#xf6;" horiz-adv-x="1150" d="M76 461q0 241 147 395t387 154q209 0 336 -134.5t127 -349.5q0 -250 -140.5 -402.5t-383.5 -152.5q-214 0 -343.5 140t-129.5 350zM283 1274q0 48 30 79t80 31q49 0 79 -31t30 -79t-31 -79.5t-80 -31.5q-47 0 -77.5 31t-30.5 80zM317 524q0 -201 71.5 -304t199.5 -103 q118 0 185 85t67 257q0 77 -12.5 143.5t-40.5 127.5t-81.5 96.5t-127.5 35.5q-125 0 -193 -92t-68 -246zM645 1274q0 48 30.5 79t80.5 31q49 0 78.5 -31t29.5 -79t-31 -79.5t-81 -31.5q-46 0 -76.5 31t-30.5 80z" />
<glyph unicode="&#xf7;" horiz-adv-x="1251" d="M162 528v156h928v-156h-928zM508 297q0 50 33 83.5t84 33.5q48 0 81 -34t33 -85q0 -49 -33 -81t-81 -32q-52 0 -84.5 32.5t-32.5 82.5zM508 915q0 50 33 83.5t84 33.5q48 0 81 -34t33 -85q0 -49 -33 -80.5t-81 -31.5q-52 0 -84.5 32t-32.5 82z" />
<glyph unicode="&#xf8;" horiz-adv-x="1150" d="M76 461q0 241 147 395t387 154q129 0 236 -58l96 131l96 -75l-96 -129q131 -134 131 -353q0 -250 -140.5 -402.5t-383.5 -152.5q-135 0 -238 58l-94 -127l-92 71l92 125q-68 68 -104.5 162t-36.5 201zM317 524q0 -139 37 -237l381 514q-61 61 -157 61q-125 0 -193 -92 t-68 -246zM422 178q67 -61 166 -61q118 0 185 85t67 257q0 134 -37 233z" />
<glyph unicode="&#xf9;" horiz-adv-x="1261" d="M29 834v137q105 0 222 10.5t163 24.5l20 -25q-31 -238 -31 -528q0 -166 33 -226q20 -35 62.5 -52t85.5 -17q65 0 127 28t92 80q35 64 35 217q0 148 -2 207q-3 93 -17 117q-18 29 -80 29q-28 0 -57 -2v137q105 0 221 10.5t162 24.5l20 -25q-26 -200 -26 -539 q0 -203 14 -258q13 -47 72 -47q28 0 74 4v-137q-219 0 -369 -27l-23 21q5 40 11 141q-75 -86 -163.5 -127t-172.5 -41q-46 0 -83.5 5t-76.5 18.5t-67.5 39t-51.5 63.5t-35 95.5t-12 131.5q0 20 3 161t3 205q0 90 -16 117q-17 29 -76 29q-28 0 -61 -2zM344 1427l180 86 q80 -159 207 -383l-67 -40q-222 226 -320 337z" />
<glyph unicode="&#xfa;" horiz-adv-x="1261" d="M29 834v137q105 0 222 10.5t163 24.5l20 -25q-31 -238 -31 -528q0 -166 33 -226q20 -35 62.5 -52t85.5 -17q65 0 127 28t92 80q35 64 35 217q0 148 -2 207q-3 93 -17 117q-18 29 -80 29q-28 0 -57 -2v137q105 0 221 10.5t162 24.5l20 -25q-26 -200 -26 -539 q0 -203 14 -258q13 -47 72 -47q28 0 74 4v-137q-219 0 -369 -27l-23 21q5 40 11 141q-75 -86 -163.5 -127t-172.5 -41q-46 0 -83.5 5t-76.5 18.5t-67.5 39t-51.5 63.5t-35 95.5t-12 131.5q0 20 3 161t3 205q0 90 -16 117q-17 29 -76 29q-28 0 -61 -2zM496 1130 q138 243 206 381l183 -84q-135 -150 -322 -337z" />
<glyph unicode="&#xfb;" horiz-adv-x="1261" d="M29 834v137q105 0 222 10.5t163 24.5l20 -25q-31 -238 -31 -528q0 -166 33 -226q20 -35 62.5 -52t85.5 -17q65 0 127 28t92 80q35 64 35 217q0 148 -2 207q-3 93 -17 117q-18 29 -80 29q-28 0 -57 -2v137q105 0 221 10.5t162 24.5l20 -25q-26 -200 -26 -539 q0 -203 14 -258q13 -47 72 -47q28 0 74 4v-137q-219 0 -369 -27l-23 21q5 40 11 141q-75 -86 -163.5 -127t-172.5 -41q-46 0 -83.5 5t-76.5 18.5t-67.5 39t-51.5 63.5t-35 95.5t-12 131.5q0 20 3 161t3 205q0 90 -16 117q-17 29 -76 29q-28 0 -61 -2zM303 1122 q90 117 238 330h121q132 -202 221 -328l-74 -47q-105 111 -217 215q-71 -66 -219 -219z" />
<glyph unicode="&#xfc;" horiz-adv-x="1261" d="M29 834v137q105 0 222 10.5t163 24.5l20 -25q-31 -238 -31 -528q0 -166 33 -226q20 -35 62.5 -52t85.5 -17q65 0 127 28t92 80q35 64 35 217q0 148 -2 207q-3 93 -17 117q-18 29 -80 29q-28 0 -57 -2v137q105 0 221 10.5t162 24.5l20 -25q-26 -200 -26 -539 q0 -203 14 -258q13 -47 72 -47q28 0 74 4v-137q-219 0 -369 -27l-23 21q5 40 11 141q-75 -86 -163.5 -127t-172.5 -41q-46 0 -83.5 5t-76.5 18.5t-67.5 39t-51.5 63.5t-35 95.5t-12 131.5q0 20 3 161t3 205q0 90 -16 117q-17 29 -76 29q-28 0 -61 -2zM328 1274q0 48 30 79 t80 31q49 0 79 -31t30 -79t-31 -79.5t-80 -31.5q-47 0 -77.5 31t-30.5 80zM690 1274q0 48 30.5 79t80.5 31q49 0 78.5 -31t29.5 -79t-31 -79.5t-81 -31.5q-46 0 -76.5 31t-30.5 80z" />
<glyph unicode="&#xfd;" horiz-adv-x="1130" d="M0 846v135q120 -8 272 -8q174 0 273 8v-135q-23 2 -76 2q-70 0 -70 -53q0 -24 15 -62.5t57 -128.5q106 -235 156 -350q82 202 137 350q55 145 55 193q0 51 -80 51q-38 0 -65 -2v135q125 -8 241 -8q127 0 215 8v-135q-14 2 -40 2q-38 0 -64 -30t-72 -134 q-42 -98 -125.5 -296t-144.5 -337.5t-131 -288.5q-29 -62 -59.5 -109t-72.5 -89.5t-96.5 -65t-119.5 -22.5q-76 0 -112 32.5t-36 79.5q0 52 27.5 82.5t77.5 30.5q17 0 48 -11.5t50 -11.5q71 0 121 76q49 72 121 236q-40 91 -158 346t-182 395q-18 40 -33.5 65t-31.5 35.5 t-28 13.5t-30 3q-25 0 -39 -2zM461 1130q145 255 207 381l182 -84q-135 -150 -322 -337z" />
<glyph unicode="&#xfe;" horiz-adv-x="1230" d="M16 1350v137q253 0 387 39l21 -27q-14 -110 -16 -668q75 80 178 131.5t200 51.5q165 0 259 -121.5t94 -347.5q0 -131 -38 -238.5t-104.5 -178.5t-157.5 -109.5t-196 -38.5q-78 0 -130.5 13t-106.5 42q0 -140 2 -246q3 -95 20 -121q18 -28 92 -28q35 0 68 2v-138 q-22 1 -80 3.5t-111.5 4t-91.5 1.5q-44 0 -147 -4.5t-135 -4.5v138q23 -2 49 -2q72 0 88 28q15 22 18 117q2 129 2 598q0 739 -2 848q-1 42 -7.5 67t-22 36.5t-31.5 14.5t-47 3q-34 0 -54 -2zM401 426q0 -100 23 -182q18 -58 77.5 -91.5t131.5 -33.5q128 0 195 88t67 262 q0 181 -53.5 271.5t-171.5 90.5q-71 0 -137.5 -39.5t-94.5 -95.5q-22 -43 -29.5 -104t-7.5 -166z" />
<glyph unicode="&#xff;" horiz-adv-x="1130" d="M0 846v135q120 -8 272 -8q174 0 273 8v-135q-23 2 -76 2q-70 0 -70 -53q0 -24 15 -62.5t57 -128.5q106 -235 156 -350q82 202 137 350q55 145 55 193q0 51 -80 51q-38 0 -65 -2v135q125 -8 241 -8q127 0 215 8v-135q-14 2 -40 2q-38 0 -64 -30t-72 -134 q-42 -98 -125.5 -296t-144.5 -337.5t-131 -288.5q-29 -62 -59.5 -109t-72.5 -89.5t-96.5 -65t-119.5 -22.5q-76 0 -112 32.5t-36 79.5q0 52 27.5 82.5t77.5 30.5q17 0 48 -11.5t50 -11.5q71 0 121 76q49 72 121 236q-40 91 -158 346t-182 395q-18 40 -33.5 65t-31.5 35.5 t-28 13.5t-30 3q-25 0 -39 -2zM289 1274q0 48 30 79t80 31q49 0 79 -31t30 -79t-31 -79.5t-80 -31.5q-47 0 -77.5 31t-30.5 80zM651 1274q0 48 30.5 79t80.5 31q49 0 78.5 -31t29.5 -79t-31 -79.5t-81 -31.5q-46 0 -76.5 31t-30.5 80z" />
<glyph unicode="&#x152;" horiz-adv-x="2070" d="M86 662q0 149 47 280t134 230t220 156.5t295 57.5q37 0 161.5 -5t234.5 -5q489 0 716 8q4 -163 27 -340l-125 -6q-14 83 -30.5 118.5t-43.5 51.5q-30 18 -80 25.5t-174 7.5q-94 0 -139 -4q-40 -3 -47 -37q-10 -41 -10 -321q0 -56 18 -68q12 -8 133 -8q89 0 131.5 9 t63.5 30q28 35 35 121h121q-7 -179 -7 -250q0 -109 5 -226h-123q-8 105 -45 131q-42 31 -185 31q-120 0 -135 -12q-12 -12 -12 -55q0 -200 7.5 -279.5t23.5 -107.5q17 -29 55 -41.5t137 -12.5q126 0 186.5 9t96.5 36q75 60 104 222l133 -9q-30 -194 -51 -401q-394 4 -803 4 q-37 0 -187.5 -5t-236.5 -5q-320 0 -485.5 178t-165.5 492zM348 692q0 -123 24 -221t75 -174.5t139.5 -118t208.5 -41.5q172 0 206 58q20 34 23 106q4 133 4 418q0 235 -2 348q-3 112 -25 141q-41 47 -186 47q-117 0 -207 -43t-146.5 -119.5t-85 -177.5t-28.5 -223z" />
<glyph unicode="&#x153;" horiz-adv-x="1771" d="M76 461q0 241 146.5 395t387.5 154q232 0 351 -176q64 84 160 130t216 46q178 0 275.5 -104.5t97.5 -282.5q0 -55 -18.5 -77.5t-63.5 -25.5q-162 -9 -571 -12q-2 -20 -2 -53q0 -55 15 -105.5t46.5 -96t90 -72.5t136.5 -27q156 0 293 147l99 -92q-94 -116 -205 -178 t-254 -62q-241 0 -350 170q-133 -168 -377 -168q-214 0 -343.5 140t-129.5 350zM317 524q0 -203 69.5 -309t195.5 -106q115 0 183 88t69 262q0 78 -12 145t-39.5 129.5t-80.5 98.5t-127 36q-124 0 -191 -94t-67 -250zM1073 664q0 -25 29 -25q31 -2 117 -2q198 0 233 25 q21 15 21 55q0 79 -46.5 116t-121.5 37q-77 0 -138 -38.5t-86 -116.5q-8 -21 -8 -51z" />
<glyph unicode="&#x178;" horiz-adv-x="1349" d="M0 1245v139q78 -6 285 -6q247 0 325 6v-139q-2 0 -22.5 1t-36.5 1q-52 0 -73.5 -9.5t-22.5 -37.5q0 -39 53 -123q21 -34 51 -80.5t76 -117.5t78 -121q169 264 207 329q36 64 36 105q0 28 -18.5 41t-77.5 14q-14 0 -24 -0.5t-15.5 -1t-7.5 -0.5v139q78 -6 279 -6 q180 0 258 6v-139q-10 2 -31 2q-49 0 -83 -23.5t-71 -74.5q-121 -163 -379 -567q0 -48 2 -137.5t3 -161.5q0 -99 12 -121q16 -29 96 -29q43 0 68 2v-139q-24 1 -86.5 3t-117.5 3.5t-93 1.5q-187 0 -301 -8v139q37 -2 77 -2q64 0 78 27q16 24 19 123q2 72 2 295 q-35 60 -68.5 114t-77 121t-65 99.5t-82 123t-78.5 117.5q-34 52 -65 73t-74 21q-23 0 -35 -2zM389 1618q0 48 31.5 79.5t81.5 31.5t80 -31.5t30 -79.5t-31 -80.5t-81 -32.5q-48 0 -79.5 31.5t-31.5 81.5zM780 1618q0 48 31.5 79.5t81.5 31.5q49 0 80 -31.5t31 -79.5 t-32.5 -80.5t-82.5 -32.5q-47 0 -78 31.5t-31 81.5z" />
<glyph unicode="&#x2c6;" horiz-adv-x="567" d="M-6 1122q78 102 237 330h121q132 -202 221 -328l-73 -47q-105 111 -217 215q-81 -76 -220 -219z" />
<glyph unicode="&#x2dc;" horiz-adv-x="567" d="M-31 1155q71 211 191 211q34 0 116 -33l64 -26q51 -21 82 -21q30 0 50 22t38 78l88 -22q-28 -118 -70 -172.5t-108 -54.5q-59 0 -125 28l-59 25q-75 27 -93 27q-30 0 -49 -20t-41 -73z" />
<glyph unicode="&#x2000;" horiz-adv-x="927" />
<glyph unicode="&#x2001;" horiz-adv-x="1855" />
<glyph unicode="&#x2002;" horiz-adv-x="927" />
<glyph unicode="&#x2003;" horiz-adv-x="1855" />
<glyph unicode="&#x2004;" horiz-adv-x="618" />
<glyph unicode="&#x2005;" horiz-adv-x="463" />
<glyph unicode="&#x2006;" horiz-adv-x="309" />
<glyph unicode="&#x2007;" horiz-adv-x="309" />
<glyph unicode="&#x2008;" horiz-adv-x="231" />
<glyph unicode="&#x2009;" horiz-adv-x="371" />
<glyph unicode="&#x200a;" horiz-adv-x="103" />
<glyph unicode="&#x2010;" horiz-adv-x="659" d="M92 440v178q47 -4 246 -4q153 0 229 4v-178q-59 2 -227 2q-170 0 -248 -2z" />
<glyph unicode="&#x2011;" horiz-adv-x="659" d="M92 440v178q47 -4 246 -4q153 0 229 4v-178q-59 2 -227 2q-170 0 -248 -2z" />
<glyph unicode="&#x2012;" horiz-adv-x="659" d="M92 440v178q47 -4 246 -4q153 0 229 4v-178q-59 2 -227 2q-170 0 -248 -2z" />
<glyph unicode="&#x2013;" horiz-adv-x="1212" d="M92 446v164q47 -4 524 -4q430 0 506 4v-164q-89 3 -504 3q-409 0 -526 -3z" />
<glyph unicode="&#x2014;" horiz-adv-x="1636" d="M92 446v164q47 -4 725 -4q649 0 725 4v-164q-88 3 -723 3q-610 0 -727 -3z" />
<glyph unicode="&#x2018;" horiz-adv-x="444" d="M72 1067q0 129 80.5 222t214.5 143l41 -91q-45 -17 -103 -53q-57 -38 -57 -94q0 -46 47 -66q80 -38 80 -129q0 -49 -38 -87t-104 -38q-27 0 -53.5 9.5t-51.5 30t-40.5 60.5t-15.5 93z" />
<glyph unicode="&#x2019;" horiz-adv-x="444" d="M39 956q25 9 100 56q58 39 58 92q0 45 -47 65q-80 41 -80 129q0 49 37.5 87t103.5 38q62 0 112 -45t50 -147q0 -130 -81 -223t-214 -140z" />
<glyph unicode="&#x201a;" horiz-adv-x="444" d="M39 -184q47 18 100 53q58 39 58 94q0 46 -47 66q-80 41 -80 129q0 49 37.5 87t103.5 38q27 0 53.5 -9.5t52 -30t41 -60.5t15.5 -93q0 -129 -81 -222t-214 -142z" />
<glyph unicode="&#x201c;" horiz-adv-x="823" d="M72 1067q0 129 81 223t214 142l41 -91q-45 -17 -103 -53q-57 -38 -57 -94q0 -46 47 -66q80 -38 80 -129q0 -49 -38 -87t-104 -38q-27 0 -53.5 9.5t-51.5 30t-40.5 60.5t-15.5 93zM451 1067q0 129 80.5 223t213.5 142l41 -91q-52 -20 -102 -53q-57 -38 -57 -94 q0 -45 47 -66q82 -42 82 -129q0 -48 -39 -86.5t-105 -38.5q-27 0 -53.5 9.5t-51.5 30t-40.5 60.5t-15.5 93z" />
<glyph unicode="&#x201d;" horiz-adv-x="823" d="M39 956q25 9 100 56q58 39 58 92q0 45 -47 65q-80 41 -80 129q0 49 37.5 87t103.5 38q62 0 112 -45t50 -147q0 -130 -80.5 -222t-214.5 -141zM418 956q42 16 100 56q57 38 57 92q0 42 -47 65q-79 39 -79 129q0 49 37.5 87t103.5 38q27 0 53.5 -9t52.5 -29.5t42 -60 t16 -93.5q0 -130 -81 -223t-214 -140z" />
<glyph unicode="&#x201e;" horiz-adv-x="823" d="M39 -184q47 18 100 53q58 39 58 94q0 46 -47 66q-80 41 -80 129q0 49 37.5 87t103.5 38q27 0 53.5 -9.5t52 -30t41 -60.5t15.5 -93q0 -131 -81.5 -222.5t-213.5 -141.5zM418 -184q37 14 100 53q57 41 57 94q0 46 -47 66q-79 39 -79 129q0 49 37.5 87t103.5 38 q27 0 54 -9.5t52.5 -30t41.5 -60.5t16 -93q0 -130 -81 -222.5t-214 -141.5z" />
<glyph unicode="&#x2022;" horiz-adv-x="704" d="M78 598q0 125 80 203t198 78q121 0 197 -78t76 -207q0 -131 -76.5 -208t-202.5 -77q-121 0 -196.5 74.5t-75.5 214.5z" />
<glyph unicode="&#x2026;" horiz-adv-x="1669" d="M160 94q0 52 34.5 85.5t84.5 33.5t82 -33t32 -88q0 -54 -32.5 -86.5t-84.5 -32.5q-50 0 -83 34t-33 87zM717 94q0 52 34.5 85.5t84.5 33.5t82 -33t32 -88q0 -54 -32.5 -86.5t-83.5 -32.5q-50 0 -83.5 34t-33.5 87zM1276 94q0 52 34.5 85.5t84.5 33.5q51 0 82.5 -33 t31.5 -88q0 -54 -31.5 -86.5t-82.5 -32.5q-50 0 -84.5 34t-34.5 87z" />
<glyph unicode="&#x202f;" horiz-adv-x="371" />
<glyph unicode="&#x2039;" horiz-adv-x="595" d="M63 477v55q287 233 406 347l57 -48q-93 -128 -258 -323q239 -307 262 -338l-63 -55q-230 217 -404 362z" />
<glyph unicode="&#x203a;" horiz-adv-x="595" d="M68 823l63 56q202 -193 401 -363v-55q-282 -232 -403 -346l-57 47q93 128 258 323q-202 255 -262 338z" />
<glyph unicode="&#x205f;" horiz-adv-x="463" />
<glyph unicode="&#x20ac;" horiz-adv-x="1380" d="M154 467v127h139v16q0 63 6 121h-145v129h168q55 218 205 340.5t376 122.5q174 0 274.5 -66t100.5 -161q0 -64 -32 -95.5t-85 -31.5q-100 0 -117 78q-20 83 -63 110t-123 27q-115 0 -198.5 -84.5t-116.5 -239.5h420v-129h-437q-2 -23 -2 -67q0 -47 2 -70h437v-127h-422 q32 -160 118 -241t222 -81q103 0 194 57t150 158l116 -77q-181 -314 -512 -314q-227 0 -360.5 134.5t-165.5 363.5h-149z" />
<glyph unicode="&#x2122;" horiz-adv-x="1847" d="M63 1169q9 57 21 215q99 -6 313 -6q230 0 344 6q3 -86 15 -213l-82 -4q-14 83 -34.5 106t-72.5 23q-65 0 -73 -10q-9 -14 -9 -37q-2 -51 -2 -229q0 -115 2 -201q0 -47 11 -61q16 -19 67 -19q31 0 37 2v-84q-93 5 -199 5q-125 0 -182 -5v84q4 -2 45 -2t55 17q11 15 11 63 q2 82 2 205q0 182 -2 225q0 26 -8 37q-10 10 -68 10q-56 0 -73.5 -21t-39.5 -110zM795 657v84q1 0 17.5 -1t18.5 -1q44 0 58 21q11 16 14 69q25 342 25 398q0 28 -6 43q-13 30 -68 30l-29 -2v84q31 -2 164 -2q110 0 135 2q17 -58 35 -102q94 -236 125 -319q130 298 135 311 q34 85 39 110q23 -2 131 -2q25 0 80 1t68 1v-82h-37q-38 0 -47 -18q-8 -16 -8 -70q0 -47 14 -389q3 -53 14 -67q10 -17 47 -17q2 0 20 1t19 1v-84q-77 5 -192 5q-63 0 -160 -5v84q1 0 19 -1t20 -1q30 0 47 21q10 17 10 65q0 25 -8 377q-173 -391 -211 -483h-67 q-44 118 -193 483q-14 -289 -16 -397q0 -36 14 -53q13 -13 45 -13q2 0 23 1t22 1v-84q-77 5 -141 5q-69 0 -176 -5z" />
<glyph unicode="&#x25fc;" horiz-adv-x="983" d="M0 0v983h983v-983h-983z" />
</font>
</defs>
</svg>
